<svg width="695" height="334" viewBox="0 0 695 334" fill="none" xmlns="http://www.w3.org/2000/svg">
<g opacity="0.3">
<path opacity="0.5" d="M17.8657 -235.183L159.793 -196.465C236.495 -175.541 296.505 -115.762 317.725 -39.1409L327.515 -3.7901C347.769 69.3451 412.85 121.093 488.668 124.35L534.598 126.322C581.937 128.355 622.739 160.279 636.101 205.738V205.738C652.008 259.856 706.048 293.372 761.597 283.572L880.891 262.527" stroke="#2FAFD7" stroke-width="35" stroke-linecap="round"/>
<path opacity="0.5" d="M59.8657 -283.183L201.793 -244.465C278.495 -223.541 338.505 -163.762 359.725 -87.1409L369.515 -51.7901C389.769 21.3451 454.85 73.0934 530.668 76.3497L576.598 78.3223C623.937 80.3554 664.739 112.279 678.101 157.738V157.738C694.008 211.856 748.048 245.372 803.597 235.572L922.891 214.527" stroke="#2FAFD7" stroke-width="35" stroke-linecap="round"/>
</g>
</svg>
