<?xml version="1.0" encoding="utf-8"?>
<!-- Generator: Adobe Illustrator 28.3.0, SVG Export Plug-In . SVG Version: 6.00 Build 0)  -->
<svg version="1.1" id="Layer_1" xmlns="http://www.w3.org/2000/svg" xmlns:xlink="http://www.w3.org/1999/xlink" x="0px" y="0px"
	 viewBox="0 0 1440 1386" style="enable-background:new 0 0 1440 1386;" xml:space="preserve">
<style type="text/css">
	.st0{fill:url(#SVGID_1_);}
	.st1{fill:url(#SVGID_00000168800615046598718790000013021850589452471972_);}
	.st2{fill:url(#SVGID_00000037666863592702591390000009740587314638323385_);}
	.st3{fill:url(#SVGID_00000183929303071133036060000010413558527817066913_);}
	.st4{fill:url(#SVGID_00000056425183192946991890000013455385031253591979_);}
</style>
<linearGradient id="SVGID_1_" gradientUnits="userSpaceOnUse" x1="712.5345" y1="1221.0831" x2="712.9036" y2="209.5153" gradientTransform="matrix(1 0 0 -1 0 1318.1405)">
	<stop  offset="0" style="stop-color:#C5E3FF"/>
	<stop  offset="1" style="stop-color:#176DD3"/>
</linearGradient>
<path class="st0" d="M290.6,220.2l-101.8-66.4c-78.3-51.1-180.5-46-253.4,12.5c-51.1,41-80.8,103-80.8,168.5v773.9H1571V266.9
	c0-91.8-61.2-172.3-149.6-196.8c-57.1-15.8-118.2-6.1-167.6,26.6l-128,84.9c-88.4,58.7-199.1,73-299.6,38.8l-27.3-9.3
	c-73.8-25.1-154.8-18-223.1,19.7C486.1,280.2,376.4,276.1,290.6,220.2z"/>
<linearGradient id="SVGID_00000023967570452021017980000016460851637060340630_" gradientUnits="userSpaceOnUse" x1="683.7627" y1="1120.0151" x2="683.7627" y2="265.0152" gradientTransform="matrix(1 0 0 -1 0 1318.1405)">
	<stop  offset="0" style="stop-color:#3CA8E2"/>
	<stop  offset="1" style="stop-color:#05283B"/>
</linearGradient>
<path style="fill:url(#SVGID_00000023967570452021017980000016460851637060340630_);" d="M502.5,329.9l-115.9-28.6
	c-62.4-15.4-127.3-17.5-190.5-6c-256,46.4-421.2,297.2-362.8,550.7l47.7,207.1h1665V255.2c0-15.9-21-21.7-29.1-8
	c-0.9,1.5-2.1,2.9-3.5,4.1l-27.1,22.5c-50.8,42.1-117.8,59-182.5,46l-106.3-21.4c-66.7-13.4-135.7-11.4-201.5,6l-85.2,22.5
	C777,362,636.7,363.1,502.5,329.9z"/>
<linearGradient id="SVGID_00000115499037867448805590000005879595519565886895_" gradientUnits="userSpaceOnUse" x1="696.5139" y1="959.0152" x2="696.5139" y2="-460.4848" gradientTransform="matrix(1 0 0 -1 0 1318.1405)">
	<stop  offset="0" style="stop-color:#3DBAE1"/>
	<stop  offset="1" style="stop-color:#1A637A"/>
</linearGradient>
<path style="fill:url(#SVGID_00000115499037867448805590000005879595519565886895_);" d="M283.5,454.7l-126.7,31.6
	c-32,8-65.9,3.8-95-11.6c-93.8-49.7-205.3,24.3-195.9,130l104.2,1174h1503.5l54.1-1229.4c4.4-100.1-81.3-180.6-180.9-169.9
	c-17.4,1.9-34.4,6.5-50.3,13.7l-164.1,74.5c-43.8,19.9-93.7,21.7-138.8,5.2c-48.7-17.9-102.8-14.3-148.6,10l-30.4,16.1
	c-72.9,38.6-159.9,40.2-234.2,4.5l-48.8-23.4C454.2,442.9,366.5,434,283.5,454.7z"/>
<linearGradient id="SVGID_00000075867974196134722910000002633984349343325842_" gradientUnits="userSpaceOnUse" x1="758.3423" y1="792.3113" x2="758.6033" y2="-58.9847" gradientTransform="matrix(1 0 0 -1 0 1318.1405)">
	<stop  offset="0" style="stop-color:#C5E3FF"/>
	<stop  offset="1" style="stop-color:#176DD3"/>
</linearGradient>
<path style="fill:url(#SVGID_00000075867974196134722910000002633984349343325842_);" d="M334.9,628.7l-116.9-64.2
	c-70.5-38.7-156.8-34.7-223.4,10.3C-64.6,614.7-100,681.4-100,752.7v624.4h1717V703.4c0-96.8-66.7-180.9-161-203
	c-50.5-11.8-103.7-4.3-149,21l-130.7,72.9c-92.8,51.8-202.4,64.4-304.5,35.2l-29.2-8.4c-73.4-21-151.9-14.9-221.2,17.2
	C529.8,680.9,423.4,677.3,334.9,628.7z"/>
<linearGradient id="SVGID_00000157279128307634417490000012636964415270184375_" gradientUnits="userSpaceOnUse" x1="681.7627" y1="684.0152" x2="681.7627" y2="-170.9848" gradientTransform="matrix(1 0 0 -1 0 1318.1405)">
	<stop  offset="0" style="stop-color:#3CA8E2"/>
	<stop  offset="1" style="stop-color:#05283B"/>
</linearGradient>
<path style="fill:url(#SVGID_00000157279128307634417490000012636964415270184375_);" d="M500.5,765.9l-115.9-28.6
	c-62.4-15.4-127.3-17.5-190.5-6c-256,46.4-421.2,297.2-362.8,550.7l47.7,207.1h1665V691.2c0-15.9-21-21.7-29.1-8
	c-0.9,1.5-2.1,2.9-3.5,4.1l-27.1,22.5c-50.8,42.1-117.8,59-182.5,46l-106.3-21.4c-66.7-13.4-135.7-11.4-201.5,6l-85.2,22.5
	C775,798,634.7,799.1,500.5,765.9z"/>
</svg>
