<?xml version="1.0" encoding="utf-8"?>
<!-- Generator: Adobe Illustrator 28.3.0, SVG Export Plug-In . SVG Version: 6.00 Build 0)  -->
<svg version="1.1" id="Layer_1" xmlns="http://www.w3.org/2000/svg" xmlns:xlink="http://www.w3.org/1999/xlink" x="0px" y="0px"
	 viewBox="0 0 564 514.9" style="enable-background:new 0 0 564 514.9;" xml:space="preserve">
<style type="text/css">
	.st0{opacity:0.3;}
	.st1{opacity:0.5;fill:none;stroke:#2FAFD7;stroke-width:35;stroke-linecap:round;enable-background:new    ;}
</style>
<g class="st0">
	<path class="st1" d="M-216.1,65.8l141.9,38.7C2.5,125.5,62.5,185.2,83.7,261.9l9.8,35.4c20.3,73.1,85.3,124.9,161.2,128.1l45.9,2
		c47.3,2,88.1,34,101.5,79.4l0,0c15.9,54.1,69.9,87.6,125.5,77.8l119.3-21"/>
	<path class="st1" d="M-174.1,17.8l141.9,38.7c76.7,20.9,136.7,80.7,157.9,157.3l9.8,35.4c20.3,73.1,85.3,124.9,161.2,128.1l45.9,2
		c47.3,2,88.1,34,101.5,79.4l0,0c15.9,54.1,69.9,87.6,125.5,77.8l119.3-21"/>
</g>
</svg>
