<?xml version="1.0" encoding="utf-8"?>
<!-- Generator: Adobe Illustrator 28.3.0, SVG Export Plug-In . SVG Version: 6.00 Build 0)  -->
<svg version="1.1" id="Layer_1" xmlns="http://www.w3.org/2000/svg" xmlns:xlink="http://www.w3.org/1999/xlink" x="0px" y="0px"
	 viewBox="0 0 1440 1738.8" style="enable-background:new 0 0 1440 1738.8;" xml:space="preserve">
<style type="text/css">
	.st0{fill:url(#SVGID_1_);}
</style>
<linearGradient id="SVGID_1_" gradientUnits="userSpaceOnUse" x1="720" y1="-764.0924" x2="720" y2="1022.8606" gradientTransform="matrix(1 0 0 -1 0 1027.8899)">
	<stop  offset="0.421" style="stop-color:#1A637A"/>
	<stop  offset="0.7293" style="stop-color:#3DBAE1"/>
</linearGradient>
<path class="st0" d="M1439.9,19.1c-26.8-13.1-58.2-17.8-90.4-10.8c-24.3,5.3-46.7,17-64.9,33.9l-163.9,152.2
	c-37.5,34.8-94.6,37.8-135.5,7.1C942,168.9,881,174.4,844.2,214.2L807,254.4c-63.8,68.9-171.8,71.5-238.8,5.8l-46.3-45.4
	c-70.4-69.1-177-85.4-264.9-40.7l-89.1,45.4c-40.7,20.7-90.2,11.9-121.2-21.7c-13.8-15-29.9-24.5-46.6-29.3v1567.3h1439.9"/>
</svg>
