<?xml version="1.0" encoding="utf-8"?>
<!-- Generator: Adobe Illustrator 28.3.0, SVG Export Plug-In . SVG Version: 6.00 Build 0)  -->
<svg version="1.1" id="Layer_1" xmlns="http://www.w3.org/2000/svg" xmlns:xlink="http://www.w3.org/1999/xlink" x="0px" y="0px"
	 viewBox="0 0 1440 908.1" style="enable-background:new 0 0 1440 908.1;" xml:space="preserve">
<style type="text/css">
	.st0{fill:url(#SVGID_1_);}
	.st1{fill:url(#SVGID_00000165221497884821745640000005552002224632492687_);}
	.st2{fill:url(#SVGID_00000039843710048058833730000003057427044280290956_);}
</style>
<linearGradient id="SVGID_1_" gradientUnits="userSpaceOnUse" x1="720" y1="944.6788" x2="720" y2="185.3397">
	<stop  offset="0.2324" style="stop-color:#05283B"/>
	<stop  offset="0.9019" style="stop-color:#3CA8E2"/>
</linearGradient>
<path class="st0" d="M1440,199.9c-41.6,19.4-88.6,25.5-134.5,16.8l-110.4-21c-66.6-12.6-135.1-10.7-200.8,5.6l-85.5,21.3
	c-133.9,33.3-273.8,34.3-408.1,3l-122-28.4c-58.5-13.6-119-15.4-178.2-5.3c-75.9,13-143.8,44.1-200.4,88.1v628.3h1440V199.9z"/>
<linearGradient id="SVGID_00000019665977920554787810000007908083119206873233_" gradientUnits="userSpaceOnUse" x1="720" y1="914.2202" x2="720" y2="341.1356">
	<stop  offset="1.791666e-03" style="stop-color:#1A637A"/>
	<stop  offset="0.2878" style="stop-color:#247C98"/>
	<stop  offset="0.8932" style="stop-color:#3DBAE1"/>
</linearGradient>
<path style="fill:url(#SVGID_00000019665977920554787810000007908083119206873233_);" d="M1440,380.6c-32.9-24.9-67-46.6-119.5-37.2
	l-186.6,34.1c-46.3,8.5-93.7,9.3-140.3,2.4c-50.7-7.5-102.3-5.9-152.5,4.8l-26.9,5.7c-76.4,16.2-155.3,17-232,2.2l-50.2-9.7
	c-79.6-15.4-161.1-19.1-241.8-11l-92.9,15.4c-51,5-98.5,1.2-114.4-2.2c-29.2-6.2-57.5-4-83,4.6v515.4h1440V380.6z"/>
<linearGradient id="SVGID_00000140692671518872072870000008674991326352095125_" gradientUnits="userSpaceOnUse" x1="719.9751" y1="894.2593" x2="720.0367" y2="509.9475">
	<stop  offset="0" style="stop-color:#176DD3"/>
	<stop  offset="5.679287e-02" style="stop-color:#2B7AD8"/>
	<stop  offset="0.2066" style="stop-color:#599AE4"/>
	<stop  offset="0.3566" style="stop-color:#80B4EE"/>
	<stop  offset="0.5042" style="stop-color:#9EC9F5"/>
	<stop  offset="0.6486" style="stop-color:#B4D7FB"/>
	<stop  offset="0.7884" style="stop-color:#C1E0FE"/>
	<stop  offset="0.9186" style="stop-color:#C5E3FF"/>
</linearGradient>
<path style="fill:url(#SVGID_00000140692671518872072870000008674991326352095125_);" d="M1440,907V515c-0.8-0.2-1.6-0.4-2.4-0.5
	c-39.6-8.1-80.7-5.2-118.9,8.2l-89.6,31.5c-87.7,30.8-181.6,39.6-273.5,25.7l-62.1-9.4c-83.3-12.6-168.5,0.8-243.9,38.3
	c-107,53.3-232,57.2-342.1,10.6l-136.4-57.7c-43.9-18.6-93-20.4-138.1-5.3c-11.6,3.9-22.6,8.8-33,14.6V907H1440z"/>
</svg>
