<svg width="158" height="174" viewBox="0 0 158 174" fill="none" xmlns="http://www.w3.org/2000/svg">
<path d="M154.379 0.673599C154.199 0.464413 153.883 0.44097 153.674 0.621236L150.265 3.55885C150.056 3.73912 150.032 4.05483 150.212 4.26401C150.393 4.4732 150.708 4.49664 150.918 4.31638L153.948 1.70517L156.559 4.73528C156.739 4.94446 157.055 4.96791 157.264 4.78764C157.473 4.60737 157.497 4.29166 157.316 4.08247L154.379 0.673599ZM-2.41264e-08 173.5C73.7067 173.5 147.298 98.0066 154.499 1.03703L153.501 0.962974C146.329 97.5592 73.0462 172.5 2.41264e-08 172.5L-2.41264e-08 173.5Z" fill="white"/>
</svg>
