<svg width="237" height="159" viewBox="0 0 237 159" fill="none" xmlns="http://www.w3.org/2000/svg">
<path d="M31.5204 3.14818C32.2075 3.08119 32.7102 2.46987 32.6432 1.78277C32.5762 1.09568 31.9649 0.592988 31.2778 0.659991L31.5204 3.14818ZM60.7098 126.489L60.4662 125.263L60.7098 126.489ZM84.6209 59.0385L84.1039 57.9004L84.6209 59.0385ZM236.584 148.622C236.928 148.023 236.72 147.259 236.121 146.915L226.362 141.32C225.763 140.977 224.999 141.184 224.656 141.783C224.312 142.382 224.519 143.146 225.118 143.489L233.794 148.463L228.82 157.138C228.477 157.737 228.684 158.501 229.283 158.844C229.882 159.187 230.645 158.98 230.989 158.381L236.584 148.622ZM31.2778 0.659991C30.4662 0.73913 29.6692 1.05958 28.9105 1.51601L30.1992 3.65823C30.7549 3.32397 31.1931 3.18011 31.5204 3.14818L31.2778 0.659991ZM25.6351 4.35753C24.7839 5.2961 23.9101 6.39862 23.0237 7.64275L25.0598 9.09339C25.9027 7.91025 26.7156 6.88762 27.487 6.03692L25.6351 4.35753ZM20.7697 11.0642C20.0969 12.1601 19.4188 13.3299 18.7394 14.5665L20.9306 15.7702C21.5924 14.5655 22.2504 13.4307 22.9003 12.3721L20.7697 11.0642ZM16.8659 18.1415C16.2795 19.3122 15.6947 20.5287 15.1144 21.7867L17.3845 22.8339C17.9541 21.5992 18.5273 20.4069 19.1011 19.2611L16.8659 18.1415ZM13.4677 25.4966C12.9463 26.7172 12.4307 27.9691 11.923 29.2491L14.2469 30.1708C14.7467 28.9107 15.254 27.6789 15.7667 26.4788L13.4677 25.4966ZM10.4884 33C10.0279 34.249 9.57613 35.52 9.13494 36.8102L11.5004 37.6191C11.9352 36.3476 12.3804 35.0952 12.834 33.8648L10.4884 33ZM7.86887 40.6588C7.46779 41.9277 7.07794 43.2117 6.70091 44.5084L9.10148 45.2065C9.47307 43.9285 9.8573 42.6629 10.2526 41.4123L7.86887 40.6588ZM5.61778 48.404C5.27382 49.7004 4.94372 51.0067 4.62896 52.3207L7.06018 52.9031C7.37014 51.6091 7.6953 50.3223 8.03418 49.0451L5.61778 48.404ZM3.7373 56.2593C3.45662 57.5763 3.19252 58.8986 2.94646 60.224L5.40445 60.6803C5.64639 59.3772 5.90618 58.0764 6.1824 56.7804L3.7373 56.2593ZM2.26364 64.2085C2.05406 65.5447 1.8642 66.8818 1.69555 68.2174L4.17586 68.5306C4.34126 67.2206 4.52761 65.9082 4.73346 64.5959L2.26364 64.2085ZM1.25349 72.2319C1.1267 73.5867 1.02348 74.9377 0.945453 76.2825L3.44126 76.4273C3.5175 75.1131 3.61846 73.7915 3.74262 72.4648L1.25349 72.2319ZM0.787809 80.3366C0.761803 81.6953 0.763806 83.0451 0.795589 84.3833L3.29488 84.324C3.26399 83.0231 3.26199 81.709 3.28735 80.3844L0.787809 80.3366ZM0.989384 88.463C1.08818 89.8307 1.22134 91.1832 1.39094 92.5175L3.87099 92.2022C3.7074 90.9151 3.57859 89.6077 3.48289 88.2829L0.989384 88.463ZM2.02422 96.5317C2.2829 97.893 2.58433 99.231 2.93097 100.542L5.34792 99.9033C5.01715 98.6521 4.72857 97.3716 4.48025 96.0649L2.02422 96.5317ZM4.13699 104.471C4.59708 105.776 5.10916 107.048 5.6761 108.283L7.94808 107.24C7.4146 106.078 6.93083 104.877 6.49475 103.64L4.13699 104.471ZM7.58523 111.941C8.29217 113.138 9.06116 114.29 9.89532 115.392L11.8886 113.883C11.1143 112.86 10.3982 111.787 9.73778 110.669L7.58523 111.941ZM12.5956 118.542C13.5535 119.529 14.5776 120.462 15.6702 121.335L17.2308 119.382C16.2215 118.575 15.2754 117.714 14.3898 116.801L12.5956 118.542ZM19.0894 123.73C20.2435 124.436 21.459 125.085 22.7377 125.673L23.7821 123.401C22.5912 122.854 21.4625 122.251 20.3935 121.598L19.0894 123.73ZM26.5615 127.184C27.841 127.613 29.1739 127.988 30.5619 128.308L31.1234 125.872C29.8115 125.57 28.5565 125.216 27.3564 124.813L26.5615 127.184ZM34.5773 129.054C35.8854 129.242 37.2367 129.386 38.6323 129.483L38.8061 126.989C37.4689 126.896 36.1782 126.759 34.9328 126.58L34.5773 129.054ZM42.7571 129.634C44.0591 129.641 45.3962 129.611 46.7689 129.543L46.6454 127.046C45.3163 127.112 44.0248 127.141 42.7701 127.134L42.7571 129.634ZM50.8833 129.236C52.1758 129.108 53.4977 128.949 54.8495 128.758L54.4997 126.282C53.1811 126.469 51.8938 126.623 50.6373 126.748L50.8833 129.236ZM58.8757 128.109C59.5611 127.986 60.2536 127.854 60.9535 127.715L60.4662 125.263C59.7808 125.399 59.1029 125.528 58.4325 125.649L58.8757 128.109ZM60.9535 127.715C61.6123 127.584 62.2781 127.407 62.9489 127.188L62.1729 124.812C61.5877 125.003 61.0185 125.154 60.4662 125.263L60.9535 127.715ZM66.7063 125.571C67.8349 124.976 68.9773 124.282 70.1267 123.503L68.7238 121.434C67.64 122.169 66.5768 122.813 65.5407 123.359L66.7063 125.571ZM73.3185 121.139C74.3182 120.338 75.3212 119.48 76.3234 118.572L74.6444 116.72C73.6765 117.597 72.7121 118.422 71.7556 119.188L73.3185 121.139ZM79.173 115.854C80.083 114.943 80.9898 113.996 81.8903 113.016L80.0498 111.324C79.1715 112.28 78.2888 113.202 77.4047 114.086L79.173 115.854ZM84.4909 110.079C85.3315 109.095 86.164 108.086 86.9854 107.057L85.0315 105.497C84.2267 106.505 83.4119 107.493 82.5898 108.456L84.4909 110.079ZM89.3801 103.958C90.1599 102.917 90.9267 101.86 91.6781 100.792L89.6332 99.3533C88.8959 100.402 88.1436 101.439 87.3788 102.46L89.3801 103.958ZM93.88 97.5614C94.6014 96.4691 95.3047 95.3692 95.9873 94.2658L93.8612 92.9506C93.1918 94.0327 92.5018 95.1118 91.7939 96.1836L93.88 97.5614ZM97.996 90.9046C98.6558 89.7603 99.2907 88.6164 99.8978 87.4775L97.6916 86.3015C97.098 87.4152 96.4766 88.5348 95.8302 89.6558L97.996 90.9046ZM101.68 83.9821C102.265 82.7802 102.815 81.5887 103.326 80.4132L101.033 79.4166C100.537 80.5575 100.002 81.7166 99.4324 82.8885L101.68 83.9821ZM104.806 76.763C105.283 75.4874 105.708 74.2377 106.074 73.022L103.68 72.3015C103.332 73.4592 102.925 74.6566 102.464 75.8861L104.806 76.763ZM107.055 69.1686C107.343 67.7583 107.531 66.4055 107.605 65.1281L105.11 64.9825C105.043 66.1207 104.874 67.3538 104.606 68.6696L107.055 69.1686ZM107.378 60.9863C107.077 59.4447 106.501 58.0559 105.576 56.9195L103.637 58.497C104.247 59.2475 104.683 60.2315 104.924 61.4658L107.378 60.9863ZM101.769 54.4251C100.536 54.0508 99.1326 53.9031 97.5661 53.9748L97.6803 56.4722C99.0276 56.4106 100.137 56.5425 101.043 56.8174L101.769 54.4251ZM93.5102 54.5598C92.3126 54.8327 91.0332 55.2002 89.6692 55.6658L90.4768 58.0318C91.7702 57.5903 92.9649 57.2482 94.0657 56.9973L93.5102 54.5598ZM85.9937 57.073C85.3788 57.3317 84.749 57.6073 84.1039 57.9004L85.1378 60.1765C85.7627 59.8927 86.371 59.6265 86.9632 59.3773L85.9937 57.073ZM84.1039 57.9004C83.4174 58.2122 82.7629 58.5387 82.14 58.8795L83.3401 61.0726C83.9058 60.7631 84.5047 60.4642 85.1378 60.1765L84.1039 57.9004ZM78.612 61.2322C77.4361 62.1938 76.4394 63.2358 75.6213 64.3537L77.6387 65.8302C78.3218 64.8969 79.1686 64.0065 80.1946 63.1675L78.612 61.2322ZM73.595 68.2357C73.1277 69.6155 72.8773 71.0563 72.8269 72.5435L75.3255 72.6281C75.3681 71.3685 75.5791 70.1708 75.9629 69.0376L73.595 68.2357ZM73.1997 76.8454C73.4641 78.1788 73.8618 79.5372 74.3819 80.9141L76.7206 80.0308C76.2434 78.7672 75.8865 77.5419 75.652 76.3593L73.1997 76.8454ZM76.0962 84.7131C76.7105 85.8906 77.4053 87.0806 78.1757 88.2798L80.2791 86.9288C79.5455 85.7867 78.8891 84.6616 78.3127 83.5568L76.0962 84.7131ZM80.5269 91.661C81.3279 92.7331 82.1851 93.8114 83.0956 94.8938L85.0087 93.2846C84.1271 92.2364 83.2999 91.1957 82.5296 90.1647L80.5269 91.661ZM85.8123 97.9668C86.7122 98.9382 87.6526 99.9116 88.6316 100.886L90.3949 99.1135C89.4387 98.1621 88.5219 97.213 87.6462 96.2678L85.8123 97.9668ZM91.5916 103.724C92.5706 104.631 93.5815 105.536 94.6228 106.44L96.2618 104.553C95.2398 103.665 94.2487 102.777 93.2899 101.89L91.5916 103.724ZM97.7276 109.057C98.7711 109.912 99.8407 110.764 100.935 111.612L102.467 109.636C101.389 108.801 100.337 107.963 99.3115 107.123L97.7276 109.057ZM104.153 114.043C105.239 114.843 106.346 115.639 107.473 116.43L108.909 114.384C107.797 113.604 106.706 112.819 105.636 112.031L104.153 114.043ZM110.806 118.714C111.926 119.464 113.063 120.208 114.217 120.946L115.564 118.839C114.424 118.111 113.302 117.376 112.197 116.637L110.806 118.714ZM117.65 123.092C118.799 123.795 119.963 124.491 121.141 125.18L122.403 123.022C121.239 122.342 120.089 121.654 118.954 120.96L117.65 123.092ZM124.658 127.193C125.835 127.851 127.023 128.502 128.224 129.144L129.403 126.94C128.217 126.305 127.042 125.662 125.879 125.011L124.658 127.193ZM131.815 131.023C133.016 131.638 134.228 132.244 135.449 132.84L136.546 130.594C135.339 130.004 134.141 129.405 132.954 128.798L131.815 131.023ZM139.108 134.586C140.332 135.157 141.565 135.717 142.806 136.268L143.82 133.983C142.593 133.438 141.374 132.884 140.164 132.32L139.108 134.586ZM146.527 137.878C147.773 138.403 149.026 138.917 150.284 139.42L151.212 137.099C149.968 136.602 148.73 136.093 147.498 135.574L146.527 137.878ZM154.065 140.89C155.331 141.368 156.602 141.834 157.878 142.287L158.716 139.932C157.455 139.484 156.199 139.023 154.949 138.551L154.065 140.89ZM161.716 143.609C163.001 144.037 164.289 144.452 165.58 144.853L166.322 142.466C165.047 142.07 163.775 141.66 162.507 141.238L161.716 143.609ZM169.473 146.018C170.775 146.392 172.079 146.752 173.385 147.097L174.023 144.68C172.735 144.34 171.449 143.985 170.164 143.615L169.473 146.018ZM177.33 148.092C178.647 148.408 179.966 148.708 181.284 148.992L181.81 146.548C180.511 146.269 179.212 145.973 177.914 145.661L177.33 148.092ZM185.278 149.801C186.61 150.054 187.941 150.289 189.271 150.506L189.674 148.038C188.365 147.825 187.055 147.594 185.744 147.345L185.278 149.801ZM193.308 151.109C194.652 151.291 195.994 151.453 197.334 151.596L197.599 149.11C196.283 148.97 194.965 148.81 193.643 148.631L193.308 151.109ZM201.404 151.969C202.758 152.072 204.109 152.154 205.455 152.214L205.566 149.716C204.247 149.658 202.923 149.577 201.594 149.476L201.404 151.969ZM209.545 152.327C210.906 152.342 212.261 152.333 213.61 152.299L213.548 149.8C212.23 149.833 210.904 149.842 209.572 149.828L209.545 152.327ZM217.701 152.12C219.062 152.035 220.416 151.923 221.76 151.784L221.503 149.297C220.193 149.432 218.872 149.542 217.544 149.625L217.701 152.12ZM225.825 151.276C227.178 151.077 228.52 150.849 229.852 150.59L229.376 148.136C228.083 148.387 226.778 148.609 225.461 148.802L225.825 151.276ZM233.854 149.715C234.515 149.553 235.172 149.384 235.827 149.206L235.173 146.793C234.539 146.965 233.901 147.13 233.26 147.286L233.854 149.715Z" fill="white"/>
</svg>
