<svg width="39" height="40" viewBox="0 0 39 40" fill="none" xmlns="http://www.w3.org/2000/svg">
<path d="M13 23.25C18.3848 23.25 22.75 18.8848 22.75 13.5C22.75 8.11522 18.3848 3.75 13 3.75C7.61522 3.75 3.25 8.11522 3.25 13.5C3.25 18.8848 7.61522 23.25 13 23.25Z" stroke="#FFB052" stroke-width="2.5" stroke-linecap="round" stroke-linejoin="round"/>
<path d="M29.3965 17.3512C30.9326 17.9239 32.2995 18.8747 33.3708 20.1157C34.4421 21.3567 35.1832 22.8477 35.5256 24.451C35.8679 26.0542 35.8005 27.718 35.3294 29.2882C34.8584 30.8585 33.9991 32.2847 32.8308 33.4349C31.6626 34.585 30.2232 35.422 28.6457 35.8685C27.0683 36.3149 25.4037 36.3564 23.806 35.9891C22.2082 35.6218 20.7289 34.8575 19.5048 33.767C18.2807 32.6765 17.3514 31.2949 16.8027 29.75" stroke="#FFB052" stroke-width="2.5" stroke-linecap="round" stroke-linejoin="round"/>
<path d="M11.375 10.25H13V16.75" stroke="#FFB052" stroke-width="2.5" stroke-linecap="round" stroke-linejoin="round"/>
<path d="M27.154 23.055L28.2915 24.2087L23.709 28.7912" stroke="#FFB052" stroke-width="2.5" stroke-linecap="round" stroke-linejoin="round"/>
</svg>
