<svg width="62" height="62" viewBox="0 0 62 62" fill="none" xmlns="http://www.w3.org/2000/svg">
<path d="M10.333 56.8333H46.4997C47.87 56.8333 49.1841 56.2889 50.1531 55.32C51.122 54.3511 51.6663 53.0369 51.6663 51.6666V18.0833L38.7497 5.16663H15.4997C14.1294 5.16663 12.8152 5.71097 11.8463 6.67991C10.8774 7.64885 10.333 8.96301 10.333 10.3333V20.6666" stroke="#65AEC5" stroke-width="4" stroke-linecap="round" stroke-linejoin="round"/>
<path d="M36.167 5.16663V15.5C36.167 16.8702 36.7113 18.1844 37.6803 19.1533C38.6492 20.1223 39.9634 20.6666 41.3337 20.6666H51.667" stroke="#65AEC5" stroke-width="4" stroke-linecap="round" stroke-linejoin="round"/>
<path d="M23.2503 31H7.75033C6.32359 31 5.16699 32.1566 5.16699 33.5833V43.9167C5.16699 45.3434 6.32359 46.5 7.75033 46.5H23.2503C24.6771 46.5 25.8337 45.3434 25.8337 43.9167V33.5833C25.8337 32.1566 24.6771 31 23.2503 31Z" stroke="#65AEC5" stroke-width="4" stroke-linecap="round" stroke-linejoin="round"/>
<path d="M25.833 40.0417L36.1663 46.5V31L25.833 37.4583" stroke="#65AEC5" stroke-width="4" stroke-linecap="round" stroke-linejoin="round"/>
</svg>
