<svg width="1440" height="536" viewBox="0 0 1440 536" fill="none" xmlns="http://www.w3.org/2000/svg">
<path d="M376.422 65.9366L340.712 44.2198C293.153 15.2969 238.561 0 182.897 0C-1.13553 0 -142.883 162.365 -118.044 344.714L-39 925H1464.5L1517.45 141.338C1520.13 101.641 1468.83 83.6313 1446.11 116.294C1433.66 134.198 1408.99 138.507 1391.21 125.887L1300.19 61.301C1263.38 35.1821 1216.75 27.0533 1173.28 39.1747L1006.37 85.7067C944.82 102.868 879.577 101.55 818.765 81.9166L794.962 74.2317C735.347 54.9843 670.778 57.9857 613.206 82.6804C536.212 115.705 448.002 109.468 376.422 65.9366Z" fill="url(#paint0_linear_37_2801)"/>
<path d="M376.422 65.9366L340.712 44.2198C293.153 15.2969 238.561 0 182.897 0C-1.13553 0 -142.883 162.365 -118.044 344.714L-39 925H1464.5L1517.45 141.338C1520.13 101.641 1468.83 83.6313 1446.11 116.294C1433.66 134.198 1408.99 138.507 1391.21 125.887L1300.19 61.301C1263.38 35.1821 1216.75 27.0533 1173.28 39.1747L1006.37 85.7067C944.82 102.868 879.577 101.55 818.765 81.9166L794.962 74.2317C735.347 54.9843 670.778 57.9857 613.206 82.6804C536.212 115.705 448.002 109.468 376.422 65.9366Z" fill="url(#paint1_linear_37_2801)"/>
<defs>
<linearGradient id="paint0_linear_37_2801" x1="681" y1="-185.81" x2="680.491" y2="924.999" gradientUnits="userSpaceOnUse">
<stop stop-color="#B3E1F9"/>
<stop offset="0.439335" stop-color="#51A4E1"/>
<stop offset="0.905" stop-color="#155DB1"/>
</linearGradient>
<linearGradient id="paint1_linear_37_2801" x1="681" y1="3.49548e-06" x2="681" y2="925" gradientUnits="userSpaceOnUse">
<stop stop-color="#3CA8E2"/>
<stop offset="1" stop-color="#05283B"/>
</linearGradient>
</defs>
</svg>
