<svg width="39" height="39" viewBox="0 0 39 39" fill="none" xmlns="http://www.w3.org/2000/svg">
<path d="M22.75 14.625C22.75 15.4869 22.4076 16.3136 21.7981 16.9231C21.1886 17.5326 20.362 17.875 19.5 17.875H9.75L3.25 24.375V6.5C3.25 4.7125 4.7125 3.25 6.5 3.25H19.5C20.362 3.25 21.1886 3.59241 21.7981 4.2019C22.4076 4.8114 22.75 5.63805 22.75 6.5V14.625Z" stroke="#FFB052" stroke-width="2.5" stroke-linecap="round" stroke-linejoin="round"/>
<path d="M29.25 14.625H32.5C33.362 14.625 34.1886 14.9674 34.7981 15.5769C35.4076 16.1864 35.75 17.013 35.75 17.875V35.75L29.25 29.25H19.5C18.638 29.25 17.8114 28.9076 17.2019 28.2981C16.5924 27.6886 16.25 26.8619 16.25 26V24.375" stroke="#FFB052" stroke-width="2.5" stroke-linecap="round" stroke-linejoin="round"/>
</svg>
