<svg width="179" height="172" viewBox="0 0 179 172" fill="none" xmlns="http://www.w3.org/2000/svg">
<path d="M174.023 2.1886C173.821 1.52843 174.193 0.829575 174.853 0.627669C175.513 0.425763 176.212 0.797259 176.414 1.45743L174.023 2.1886ZM0.78574 165.026C0.219188 164.631 0.0796962 163.852 0.47417 163.286L6.90252 154.053C7.29699 153.487 8.07606 153.347 8.64262 153.742C9.20917 154.136 9.34866 154.915 8.95419 155.482L3.2401 163.688L11.4468 169.403C12.0133 169.797 12.1528 170.576 11.7583 171.143C11.3638 171.709 10.5848 171.849 10.0182 171.454L0.78574 165.026ZM176.414 1.45743C176.605 2.08452 176.781 2.73291 176.94 3.40158L174.508 3.98095C174.361 3.36075 174.199 2.76309 174.023 2.1886L176.414 1.45743ZM177.669 7.41501C177.837 8.70349 177.955 10.0496 178.021 11.4485L175.524 11.5673C175.461 10.2322 175.348 8.95449 175.19 7.73828L177.669 7.41501ZM178.073 15.4769C178.046 16.7781 177.98 18.117 177.872 19.4908L175.379 19.2951C175.484 17.9676 175.548 16.6771 175.573 15.4262L178.073 15.4769ZM177.453 23.4874C177.284 24.7878 177.08 26.1149 176.84 27.4663L174.378 27.0296C174.611 25.715 174.81 24.426 174.974 23.1646L177.453 23.4874ZM176.061 31.3739C175.78 32.646 175.469 33.9367 175.127 35.2446L172.708 34.6117C173.042 33.3345 173.346 32.075 173.62 30.835L176.061 31.3739ZM174.042 39.0989C173.664 40.3555 173.257 41.6257 172.823 42.9084L170.455 42.1059C170.881 40.8501 171.278 39.6071 171.648 38.3784L174.042 39.0989ZM171.488 46.6438C171.026 47.8753 170.537 49.1167 170.022 50.3669L167.711 49.4149C168.216 48.1887 168.694 46.9717 169.148 45.7648L171.488 46.6438ZM168.451 54.0237C167.917 55.2184 167.358 56.42 166.775 57.6275L164.524 56.5407C165.096 55.3549 165.645 54.1752 166.169 53.0027L168.451 54.0237ZM164.981 61.2131C164.381 62.37 163.76 63.5314 163.115 64.6965L160.927 63.4862C161.561 62.3409 162.172 61.1995 162.761 60.0628L164.981 61.2131ZM161.13 68.1716C160.467 69.2977 159.783 70.4266 159.076 71.5574L156.956 70.2332C157.651 69.1207 158.324 68.0103 158.976 66.9029L161.13 68.1716ZM156.92 74.9138C156.197 76.0076 155.454 77.1027 154.69 78.1983L152.639 76.7684C153.391 75.6898 154.123 74.612 154.834 73.5356L156.92 74.9138ZM152.372 81.436C151.595 82.4942 150.798 83.5524 149.981 84.6099L148.003 83.0818C148.807 82.0402 149.592 80.998 150.357 79.956L152.372 81.436ZM147.512 87.7294C146.685 88.7494 145.839 89.7683 144.974 90.7855L143.07 89.166C143.922 88.1636 144.756 87.1597 145.57 86.1548L147.512 87.7294ZM142.361 93.7877C141.489 94.7673 140.598 95.7449 139.689 96.72L137.86 95.0155C138.756 94.0542 139.634 93.0904 140.494 92.1248L142.361 93.7877ZM136.939 99.6061C136.025 100.544 135.094 101.478 134.146 102.41L132.394 100.627C133.329 99.7077 134.247 98.7858 135.148 97.8612L136.939 99.6061ZM131.262 105.182C130.312 106.076 129.345 106.967 128.361 107.854L126.687 105.997C127.657 105.122 128.612 104.243 129.549 103.361L131.262 105.182ZM125.36 110.503C124.373 111.356 123.37 112.206 122.351 113.051L120.755 111.126C121.761 110.292 122.751 109.454 123.725 108.612L125.36 110.503ZM119.258 115.563C118.23 116.38 117.188 117.193 116.129 118.002L114.612 116.015C115.657 115.216 116.687 114.414 117.701 113.606L119.258 115.563ZM112.957 120.375C111.889 121.158 110.806 121.936 109.708 122.709L108.27 120.664C109.354 119.901 110.424 119.133 111.478 118.359L112.957 120.375ZM106.468 124.944C105.373 125.684 104.264 126.419 103.14 127.148L101.779 125.051C102.89 124.33 103.986 123.604 105.068 122.873L106.468 124.944ZM99.8014 129.272C98.6886 129.966 97.5621 130.655 96.4217 131.337L95.1374 129.192C96.265 128.517 97.3787 127.837 98.4788 127.151L99.8014 129.272ZM92.9653 133.365C91.8379 134.013 90.6976 134.655 89.5441 135.292L88.3359 133.104C89.4768 132.474 90.6046 131.838 91.7195 131.197L92.9653 133.365ZM86.0444 137.185C84.8801 137.802 83.703 138.413 82.513 139.019L81.3797 136.79C82.5573 136.191 83.7219 135.587 84.8737 134.976L86.0444 137.185ZM78.9865 140.776C77.7986 141.356 76.5982 141.93 75.3852 142.498L74.3252 140.234C75.5259 139.671 76.7141 139.103 77.8898 138.529L78.9865 140.776ZM71.7878 144.147C70.5949 144.683 69.3902 145.212 68.1738 145.736L67.1853 143.44C68.3899 142.921 69.5827 142.397 70.7638 141.867L71.7878 144.147ZM64.4888 147.289C63.2807 147.787 62.0614 148.279 60.8307 148.765L59.9123 146.44C61.1315 145.958 62.3393 145.471 63.5358 144.978L64.4888 147.289ZM57.1461 150.189C55.9068 150.658 54.6562 151.12 53.3944 151.577L52.5443 149.226C53.7948 148.773 55.034 148.315 56.2619 147.851L57.1461 150.189ZM49.6774 152.891C48.4415 153.318 47.1952 153.739 45.9383 154.155L45.1542 151.781C46.4002 151.369 47.6356 150.952 48.8605 150.528L49.6774 152.891ZM42.1357 155.382C40.8867 155.775 39.6275 156.163 38.3581 156.544L37.6385 154.15C38.8973 153.772 40.1459 153.387 41.3843 152.997L42.1357 155.382ZM34.5793 157.653C33.3098 158.017 32.0304 158.374 30.7408 158.726L30.0836 156.313C31.3628 155.965 32.6319 155.61 33.891 155.25L34.5793 157.653ZM26.8974 159.747C25.6386 160.073 24.3704 160.393 23.0928 160.707L22.4958 158.279C23.7635 157.967 25.0218 157.65 26.2708 157.326L26.8974 159.747ZM19.232 161.631C17.9357 161.933 16.63 162.23 15.3147 162.519L14.7766 160.078C16.0821 159.79 17.378 159.496 18.6645 159.197L19.232 161.631ZM11.4968 163.338C10.2154 163.605 8.92515 163.866 7.62608 164.122L7.14391 161.669C8.43372 161.415 9.71465 161.156 10.9868 160.891L11.4968 163.338ZM3.70226 164.87C3.04384 164.992 2.38319 165.112 1.72032 165.23L1.27969 162.77C1.93797 162.652 2.59402 162.532 3.24783 162.411L3.70226 164.87Z" fill="white"/>
</svg>
