<?xml version="1.0" encoding="UTF-8"?>
<svg id="Layer_1" xmlns="http://www.w3.org/2000/svg" version="1.1" viewBox="0 0 194.7 92.9">
  <!-- Generator: Adobe Illustrator 29.1.0, SVG Export Plug-In . SVG Version: 2.1.0 Build 142)  -->
  <defs>
    <style>
      .st0 {
        fill: #fff;
      }

      .st1 {
        fill: #e52421;
      }
    </style>
  </defs>
  <g>
    <path class="st0" d="M38.2,85.5c-4.4,0-8.3-1-11.7-2.9-3.4-1.9-6.1-4.6-8-7.9-2-3.3-2.9-7.1-2.9-11.2s.6-6.2,1.7-8.9c1.1-2.7,2.6-4.9,4.5-6.7,1.9-1.8,4-3,6.4-3.5v-.5c-3.1-.9-5.6-2.9-7.6-6.1-2-3.2-3-6.9-3-11.2s.9-7.6,2.7-10.8c1.8-3.1,4.2-5.6,7.3-7.5s6.6-2.7,10.6-2.7,7.5.9,10.6,2.7c3.1,1.8,5.6,4.3,7.4,7.5,1.8,3.2,2.7,6.8,2.7,10.8s-1,8-3,11.2-4.5,5.2-7.6,6.1v.5c2.3.5,4.5,1.7,6.4,3.5,1.9,1.8,3.4,4.1,4.5,6.7,1.1,2.7,1.7,5.6,1.7,8.9s-1,7.9-2.9,11.2c-2,3.3-4.6,5.9-8.1,7.9s-7.3,2.9-11.7,2.9ZM38.2,72.4c1.7,0,3.2-.4,4.5-1.3,1.3-.9,2.3-2.1,3-3.7.7-1.6,1.1-3.4,1.1-5.5s-.4-3.9-1.1-5.4c-.7-1.6-1.8-2.8-3.1-3.7-1.3-.9-2.8-1.4-4.5-1.4s-3.1.5-4.4,1.4c-1.3.9-2.3,2.1-3.1,3.7-.7,1.6-1.1,3.4-1.1,5.5s.4,3.9,1.1,5.4c.7,1.6,1.7,2.8,3,3.7,1.3.9,2.8,1.4,4.5,1.4ZM38.2,38.3c1.5,0,2.8-.4,3.9-1.3,1.1-.8,2-2,2.7-3.4.7-1.4,1-3.1,1-4.9s-.3-3.5-1-4.9c-.6-1.4-1.5-2.5-2.7-3.3-1.1-.8-2.4-1.2-3.9-1.2s-2.7.4-3.9,1.2c-1.1.8-2,1.9-2.7,3.3-.6,1.4-.9,3.1-.9,4.9s.3,3.5.9,4.9c.6,1.4,1.5,2.6,2.7,3.4s2.4,1.3,3.9,1.3Z"/>
    <path class="st0" d="M88.6,85.7c-3.9,0-7.4-1.1-10.4-3.2-3-2.1-5.4-5-7.2-8.6-1.8-3.6-2.9-7.5-3.2-11.9h13.2c.4,2.5,1.3,4.4,2.7,5.8,1.4,1.4,3,2.1,5,2.1s4.3-.9,5.8-2.8c1.6-1.9,2.7-4.6,3.5-8.1.8-3.5,1.1-7.5,1.1-12.2h-.3c-.8,2.3-1.9,4.3-3.3,5.9-1.5,1.7-3.1,2.9-5,3.8-1.9.9-3.9,1.3-5.9,1.3-3.4,0-6.4-1.1-9-3.2-2.6-2.1-4.6-5.1-6.1-8.8s-2.2-8-2.2-12.8.9-10.2,2.8-14.3c1.8-4.2,4.4-7.4,7.7-9.7,3.3-2.3,7.1-3.5,11.3-3.4,3.1,0,6,.7,8.8,2.1,2.8,1.4,5.3,3.6,7.4,6.6s3.9,7,5.2,11.9c1.3,4.9,1.9,10.9,1.9,18s-.6,12.2-1.7,17.3c-1.1,5.1-2.7,9.5-4.8,13.1-2.1,3.6-4.6,6.3-7.5,8.2s-6.2,2.8-9.7,2.8ZM89,45c1.3,0,2.4-.3,3.5-1,1.1-.6,2-1.5,2.8-2.7s1.4-2.5,1.9-4c.4-1.5.7-3.2.7-4.9s-.4-4.4-1.1-6.3-1.8-3.4-3.1-4.5c-1.3-1.1-2.8-1.7-4.6-1.7s-3.2.5-4.5,1.6c-1.4,1.1-2.4,2.6-3.2,4.5-.8,1.9-1.2,4-1.2,6.4s.4,4.5,1.2,6.4c.8,1.9,1.8,3.4,3.1,4.5,1.3,1.1,2.8,1.6,4.5,1.6Z"/>
    <path class="st0" d="M174.6,33.3l-2.7,8.5h-37.2l2.3-8.5h37.6ZM169.2,49.4l-3.1,8.8h-31.4l2.3-8.8h32.2ZM182,12.4l-4.9,14.5c-.6-.5-1.4-1.1-2.3-1.9-1-.8-2.1-1.5-3.4-2.1-1.3-.6-2.8-.9-4.5-.9-2.4,0-4.4.8-6.1,2.4-1.7,1.6-3,4.1-4,7.6-.9,3.5-1.4,8.1-1.4,13.7s.5,10.2,1.4,13.7c.9,3.5,2.2,6,4,7.5,1.7,1.5,3.8,2.3,6.1,2.3s3.1-.3,4.4-.9c1.3-.6,2.4-1.3,3.3-2.1.9-.8,1.7-1.4,2.2-1.9l5,14.4c-2,2.2-4.3,3.9-6.8,5-2.5,1.1-5.2,1.7-8.1,1.7-4.9,0-9.2-1.6-13-4.7-3.8-3.1-6.7-7.6-8.8-13.6-2.1-5.9-3.2-13.1-3.2-21.5s1.1-15.7,3.2-21.7c2.1-6,5.1-10.5,8.8-13.7,3.8-3.1,8.1-4.7,13-4.7s5.7.6,8.2,1.7,4.8,2.8,6.9,5Z"/>
  </g>
  <polygon class="st1" points="185.7 91.3 7.9 9.9 10.5 2.8 188.2 84.2 185.7 91.3"/>
</svg>