<svg width="213" height="45" viewBox="0 0 213 45" fill="none" xmlns="http://www.w3.org/2000/svg">
<path d="M2.83729 8.02666C2.32468 7.56424 1.53427 7.60492 1.07185 8.11752C0.609435 8.63012 0.650114 9.42053 1.16271 9.88295L2.83729 8.02666ZM212.235 3.19461C212.342 2.51267 211.877 1.87272 211.195 1.76524L200.082 0.0137529C199.4 -0.0937271 198.76 0.371963 198.652 1.0539C198.545 1.73584 199.011 2.37579 199.693 2.48327L209.571 4.04015L208.014 13.9182C207.906 14.6001 208.372 15.2401 209.054 15.3476C209.736 15.4551 210.376 14.9894 210.483 14.3074L212.235 3.19461ZM1.16271 9.88295C1.65201 10.3243 2.15523 10.768 2.67219 11.2135L4.30421 9.31972C3.80129 8.88632 3.31226 8.45514 2.83729 8.02666L1.16271 9.88295ZM5.82455 13.8153C6.86297 14.6372 7.9461 15.4623 9.07286 16.2876L10.5501 14.2708C9.44798 13.4635 8.38965 12.6573 7.37617 11.8551L5.82455 13.8153ZM12.4062 18.6411C13.508 19.3914 14.6453 20.1395 15.8173 20.8834L17.1571 18.7727C16.0075 18.0431 14.8927 17.3097 13.8133 16.5747L12.4062 18.6411ZM19.301 23.0199C20.4462 23.6985 21.6205 24.3716 22.8233 25.0376L24.0343 22.8505C22.8528 22.1963 21.6997 21.5353 20.5754 20.8691L19.301 23.0199ZM26.4029 26.9535C27.592 27.5685 28.806 28.1756 30.0443 28.7732L31.1308 26.5217C29.9134 25.9341 28.7201 25.3374 27.5515 24.733L26.4029 26.9535ZM33.7449 30.4971C34.9651 31.0455 36.2067 31.584 37.4694 32.1114L38.433 29.8046C37.1909 29.2857 35.9697 28.7561 34.7697 28.2168L33.7449 30.4971ZM41.2359 33.6265C42.4904 34.112 43.764 34.5861 45.0563 35.0476L45.8971 32.6933C44.6256 32.2392 43.3725 31.7727 42.1383 31.295L41.2359 33.6265ZM48.9046 36.3657C50.1781 36.7835 51.4684 37.1886 52.775 37.5802L53.4927 35.1854C52.2067 34.8001 50.937 34.4014 49.6839 33.9903L48.9046 36.3657ZM56.6945 38.6996C57.991 39.0519 59.3026 39.3904 60.6289 39.7144L61.2221 37.2858C59.9167 36.9669 58.6259 36.6337 57.3499 36.2871L56.6945 38.6996ZM64.5849 40.627C65.9048 40.9137 67.2384 41.1856 68.5853 41.4421L69.0529 38.9862C67.7272 38.7338 66.4146 38.4661 65.1156 38.1839L64.5849 40.627ZM72.5735 42.1487C73.9027 42.3668 75.244 42.5695 76.5974 42.756L76.9388 40.2794C75.6067 40.0958 74.2864 39.8963 72.9782 39.6817L72.5735 42.1487ZM80.6355 43.2601C81.9704 43.4094 83.3162 43.5429 84.6728 43.6597L84.8873 41.169C83.552 41.0539 82.2273 40.9226 80.9135 40.7756L80.6355 43.2601ZM88.7472 43.9583C90.0842 44.0391 91.4311 44.1036 92.7877 44.1512L92.8754 41.6527C91.54 41.6059 90.2141 41.5423 88.8979 41.4628L88.7472 43.9583ZM96.8638 44.2424C98.2067 44.2555 99.5585 44.2517 100.919 44.2307L100.881 41.731C99.541 41.7517 98.2101 41.7554 96.8881 41.7425L96.8638 44.2424ZM104.987 44.1168C106.331 44.0622 107.684 43.9906 109.045 43.9013L108.881 41.4067C107.541 41.4946 106.209 41.5651 104.885 41.6188L104.987 44.1168ZM113.094 43.5853C114.437 43.4638 115.786 43.3251 117.143 43.1686L116.856 40.6851C115.52 40.8392 114.191 40.9759 112.869 41.0955L113.094 43.5853ZM121.166 42.6547C122.502 42.4676 123.844 42.2631 125.193 42.0408L124.786 39.5741C123.458 39.7931 122.135 39.9945 120.82 40.1788L121.166 42.6547ZM129.184 41.3339C130.509 41.0829 131.84 40.8145 133.177 40.5284L132.654 38.0838C131.336 38.3658 130.024 38.6302 128.718 38.8776L129.184 41.3339ZM137.129 39.6342C138.44 39.3216 139.756 38.9917 141.077 38.6442L140.442 36.2264C139.139 36.569 137.841 36.8942 136.549 37.2024L137.129 39.6342ZM144.986 37.5687C146.28 37.1971 147.578 36.8086 148.88 36.4026L148.136 34.0158C146.852 34.4163 145.571 34.7995 144.296 35.1659L144.986 37.5687ZM152.744 35.1517C154.016 34.7242 155.293 34.2801 156.573 33.819L155.726 31.4669C154.463 31.9219 153.203 32.3601 151.948 32.7818L152.744 35.1517ZM160.391 32.3981C161.64 31.9183 162.892 31.4221 164.148 30.9094L163.203 28.5949C161.963 29.1011 160.727 29.5909 159.494 30.0645L160.391 32.3981ZM167.921 29.3233C169.143 28.7947 170.368 28.2503 171.597 27.6898L170.559 25.4153C169.346 25.969 168.135 26.5067 166.928 27.0287L167.921 29.3233ZM175.292 25.9597C176.497 25.3806 177.706 24.786 178.917 24.1754L177.792 21.943C176.595 22.5464 175.401 23.134 174.209 23.7061L175.292 25.9597ZM182.523 22.3154C183.715 21.686 184.91 21.0411 186.108 20.3806L184.9 18.1915C183.716 18.8447 182.534 19.4823 181.356 20.1044L182.523 22.3154ZM189.618 18.4027C190.791 17.7284 191.966 17.0388 193.143 16.3339L191.859 14.1891C190.694 14.8865 189.532 15.5686 188.372 16.2356L189.618 18.4027ZM196.582 14.2343C197.721 13.5253 198.862 12.8018 200.006 12.0636L198.649 9.9634C197.518 10.6941 196.388 11.4101 195.261 12.1117L196.582 14.2343ZM203.417 9.82071C204.522 9.08106 205.628 8.32755 206.737 7.56001L205.314 5.50469C204.216 6.26477 203.12 7.01086 202.026 7.74314L203.417 9.82071ZM210.067 5.21512C210.623 4.81721 211.179 4.41575 211.736 4.01072L210.265 1.98928C209.713 2.39052 209.162 2.7882 208.612 3.18233L210.067 5.21512Z" fill="white"/>
</svg>
