<svg width="261" height="87" viewBox="0 0 261 87" fill="none" xmlns="http://www.w3.org/2000/svg">
<path d="M0.397061 79.4116C0.0721854 80.0207 0.302624 80.7779 0.91176 81.1027C1.5209 81.4276 2.27806 81.1972 2.60294 80.588L0.397061 79.4116ZM77.5 2.03318L77.4719 0.783494L77.5 2.03318ZM209.5 20.5332L208.88 21.6185L209.5 20.5332ZM251.202 86.4951C251.733 86.936 252.521 86.8627 252.962 86.3314L260.146 77.6738C260.587 77.1426 260.513 76.3545 259.982 75.9137C259.451 75.4728 258.663 75.5461 258.222 76.0774L251.836 83.773L244.141 77.3873C243.609 76.9464 242.821 77.0198 242.38 77.551C241.94 78.0823 242.013 78.8703 242.544 79.3112L251.202 86.4951ZM56.4882 41.3298L57.4492 40.5305L56.4882 41.3298ZM154.45 36.0511L153.673 35.0713L154.45 36.0511ZM2.60294 80.588C2.89281 80.0445 3.20637 79.4984 3.5429 78.9497L1.41182 77.6426C1.0506 78.2315 0.711904 78.8212 0.397061 79.4116L2.60294 80.588ZM5.74207 75.7471C6.5043 74.7409 7.33511 73.7296 8.22938 72.7144L6.35342 71.0619C5.42279 72.1184 4.55242 73.1773 3.74925 74.2376L5.74207 75.7471ZM10.9299 69.8269C11.8335 68.9124 12.7829 67.9965 13.7741 67.08L12.0768 65.2444C11.0604 66.1842 10.0838 67.1262 9.15148 68.0698L10.9299 69.8269ZM16.7203 64.4569C17.7071 63.6089 18.7259 62.7614 19.7733 61.915L18.2019 59.9706C17.1365 60.8316 16.0983 61.6952 15.0909 62.5608L16.7203 64.4569ZM22.9132 59.4444C23.9511 58.6482 25.0112 57.8536 26.0908 57.0612L24.6115 55.0458C23.5187 55.8479 22.4444 56.6531 21.3915 57.4608L22.9132 59.4444ZM29.3237 54.7342C30.4044 53.9707 31.5005 53.2098 32.6095 52.4519L31.1989 50.3878C30.08 51.1526 28.9731 51.9209 27.8811 52.6924L29.3237 54.7342ZM35.9165 50.2247C37.0214 49.4909 38.136 48.7605 39.2578 48.0338L37.8986 45.9356C36.7694 46.667 35.6469 47.4027 34.5335 48.1421L35.9165 50.2247ZM42.6266 45.8755C43.7512 45.1626 44.8804 44.4537 46.0119 43.7494L44.6908 41.627C43.5539 42.3346 42.4189 43.0471 41.288 43.7641L42.6266 45.8755ZM49.4183 41.6457C50.5567 40.9479 51.695 40.255 52.8307 39.5675L51.536 37.4288C50.3968 38.1185 49.2546 38.8138 48.1118 39.5143L49.4183 41.6457ZM56.2687 37.4968C57.4215 36.8056 58.569 36.1205 59.7088 35.4418L58.4296 33.2938C57.2883 33.9735 56.1386 34.6599 54.9832 35.3526L56.2687 37.4968ZM63.1409 33.4022C64.3086 32.7093 65.4631 32.025 66.6052 31.3474L65.3297 29.1973C64.1893 29.8738 63.0322 30.5597 61.8652 31.2522L63.1409 33.4022ZM70.0567 29.2968C71.2192 28.6046 72.3629 27.9215 73.4843 27.2482L72.1973 25.1048C71.0793 25.7762 69.9383 26.4577 68.7777 27.1488L70.0567 29.2968ZM76.931 25.1649C78.1102 24.4466 79.2585 23.7406 80.3712 23.0477L79.0497 20.9255C77.9452 21.6133 76.804 22.315 75.6305 23.0298L76.931 25.1649ZM83.7805 20.8915C84.9584 20.1334 86.0846 19.3927 87.1522 18.6706L85.7515 16.5998C84.7024 17.3095 83.5923 18.0396 82.4274 18.7894L83.7805 20.8915ZM90.4749 16.3406C91.6623 15.4722 92.7465 14.6325 93.7109 13.8241L92.105 11.9081C91.1925 12.6729 90.1535 13.4784 88.9991 14.3227L90.4749 16.3406ZM96.7138 10.9691C97.9044 9.62548 98.7941 8.21114 98.9163 6.78575L96.4255 6.57211C96.3745 7.16651 95.9431 8.06924 94.8427 9.31113L96.7138 10.9691ZM95.9544 2.6121C94.853 2.10659 93.4447 1.71965 91.7397 1.43092L91.3223 3.89583C92.9103 4.16473 94.0836 4.50418 94.9116 4.88422L95.9544 2.6121ZM87.659 0.958899C86.4118 0.866876 85.0465 0.804028 83.5587 0.770733L83.5028 3.27011C84.9552 3.30261 86.2772 3.36374 87.4751 3.45212L87.659 0.958899ZM79.6162 0.748967C78.9231 0.755448 78.2084 0.766941 77.4719 0.783494L77.5281 3.28286C78.2543 3.26654 78.958 3.25523 79.6395 3.24886L79.6162 0.748967ZM77.4719 0.783494C76.7499 0.799721 76.0411 0.821369 75.3454 0.848367L75.4423 3.34649C76.124 3.32003 76.8192 3.29879 77.5281 3.28286L77.4719 0.783494ZM71.1591 1.08663C69.7034 1.19781 68.3127 1.33578 66.9856 1.49978L67.2921 3.98091C68.5779 3.82203 69.9296 3.68781 71.3495 3.57938L71.1591 1.08663ZM62.7823 2.14402C61.3143 2.41722 59.9387 2.7292 58.6526 3.07883L59.3085 5.49127C60.5227 5.16117 61.8317 4.86386 63.2397 4.60182L62.7823 2.14402ZM54.569 4.43194C53.1212 5.01268 51.8224 5.66043 50.6688 6.37408L51.9841 8.50013C52.9999 7.87167 54.1676 7.28658 55.4997 6.75224L54.569 4.43194ZM47.1772 9.18354C46.0825 10.3506 45.2504 11.6274 44.6711 13.0013L46.9746 13.9727C47.434 12.8834 48.0995 11.8545 49.0006 10.8939L47.1772 9.18354ZM43.679 17.4568C43.6073 18.8963 43.7443 20.3835 44.0602 21.9043L46.5079 21.3959C46.2285 20.0504 46.1163 18.7776 46.1759 17.5811L43.679 17.4568ZM45.321 26.0695C45.8199 27.3478 46.4229 28.649 47.1184 29.9679L49.3298 28.8018C48.6721 27.5547 48.11 26.3396 47.6499 25.1606L45.321 26.0695ZM49.2607 33.6438C49.994 34.7981 50.7893 35.9649 51.6406 37.1412L53.6659 35.6755C52.8412 34.5359 52.0745 33.4108 51.3708 32.3032L49.2607 33.6438ZM54.1961 40.4963C54.6294 41.039 55.0732 41.5834 55.5271 42.1291L57.4492 40.5305C57.0056 39.9972 56.5724 39.4657 56.15 38.9366L54.1961 40.4963ZM55.5271 42.1291C55.9564 42.6453 56.3919 43.1495 56.8335 43.6416L58.6943 41.9721C58.2738 41.5033 57.8587 41.0229 57.4492 40.5305L55.5271 42.1291ZM59.5982 46.494C60.569 47.4202 61.5643 48.2952 62.5825 49.1202L64.1564 47.1778C63.1908 46.3955 62.2462 45.565 61.324 44.6852L59.5982 46.494ZM65.7742 51.4945C66.8807 52.2482 68.0098 52.9488 69.1596 53.5977L70.3885 51.4206C69.2993 50.8059 68.2298 50.1422 67.1815 49.4283L65.7742 51.4945ZM72.7062 55.4085C73.9149 55.9635 75.1426 56.4665 76.3872 56.9193L77.2418 54.5699C76.06 54.14 74.8953 53.6627 73.7494 53.1365L72.7062 55.4085ZM80.1744 58.1296C81.4487 58.4826 82.7376 58.7871 84.0391 59.0446L84.5244 56.5922C83.2827 56.3465 82.0546 56.0563 80.8419 55.7203L80.1744 58.1296ZM87.9538 59.675C89.2589 59.8386 90.5742 59.9582 91.8979 60.0355L92.0436 57.5397C90.7736 57.4656 89.5133 57.3509 88.2647 57.1944L87.9538 59.675ZM95.8529 60.1421C97.164 60.1372 98.4813 60.0933 99.8033 60.0117L99.6493 57.5164C98.3741 57.5951 97.105 57.6374 95.8436 57.6421L95.8529 60.1421ZM103.735 59.6611C105.033 59.5103 106.333 59.325 107.635 59.1066L107.222 56.641C105.96 56.8526 104.701 57.032 103.446 57.1778L103.735 59.6611ZM111.502 58.3627C112.777 58.086 114.053 57.7789 115.327 57.4425L114.688 55.0253C113.45 55.3524 112.21 55.6509 110.972 55.9195L111.502 58.3627ZM119.106 56.358C120.353 55.9719 121.596 55.5588 122.835 55.1198L122.001 52.7633C120.792 53.1914 119.58 53.5939 118.366 53.9699L119.106 56.358ZM126.511 53.7372C127.724 53.2545 128.931 52.7478 130.131 52.2182L129.122 49.931C127.949 50.4485 126.771 50.9433 125.587 51.4144L126.511 53.7372ZM133.692 50.5699C134.867 50.0005 136.034 49.4096 137.191 48.7983L136.024 46.5877C134.892 47.1857 133.751 47.7635 132.602 48.3201L133.692 50.5699ZM140.627 46.9084C141.761 46.2592 142.885 45.5907 143.997 44.9039L142.683 42.777C141.595 43.4491 140.495 44.1034 139.385 44.7386L140.627 46.9084ZM147.298 42.7884C148.388 42.064 149.465 41.3223 150.527 40.5644L149.075 38.5293C148.035 39.2712 146.981 39.9972 145.914 40.7062L147.298 42.7884ZM153.681 38.234C154.2 37.8367 154.715 37.4357 155.226 37.0309L153.673 35.0713C153.174 35.4674 152.67 35.8598 152.162 36.2485L153.681 38.234ZM155.226 37.0309C155.719 36.6406 156.212 36.2543 156.706 35.8722L155.177 33.8946C154.675 34.2828 154.174 34.6751 153.673 35.0713L155.226 37.0309ZM159.705 33.6115C160.722 32.8655 161.74 32.1391 162.759 31.4339L161.337 29.378C160.298 30.097 159.26 30.8369 158.226 31.596L159.705 33.6115ZM165.872 29.3496C166.932 28.6638 167.992 28.0032 169.05 27.3696L167.766 25.2245C166.681 25.8737 165.597 26.5498 164.514 27.2506L165.872 29.3496ZM172.294 25.5124C173.401 24.9078 174.505 24.3354 175.605 23.7977L174.508 21.5516C173.372 22.1068 172.234 22.6966 171.095 23.3182L172.294 25.5124ZM178.988 22.2496C180.147 21.7564 181.299 21.3051 182.443 20.8983L181.606 18.5428C180.411 18.9676 179.211 19.4375 178.009 19.9493L178.988 22.2496ZM185.967 19.7811C187.174 19.4467 188.369 19.1665 189.551 18.9435L189.088 16.4868C187.832 16.7236 186.569 17.02 185.299 17.3719L185.967 19.7811ZM193.177 18.4384C194.407 18.3302 195.62 18.2907 196.814 18.3231L196.882 15.8241C195.587 15.7889 194.278 15.832 192.958 15.948L193.177 18.4384ZM200.42 18.6528C201.612 18.8423 202.783 19.1125 203.931 19.4677L204.67 17.0793C203.404 16.688 202.118 16.3913 200.812 16.1838L200.42 18.6528ZM207.283 20.7806C207.82 21.0382 208.353 21.3173 208.88 21.6185L210.12 19.4479C209.541 19.1169 208.955 18.8098 208.363 18.526L207.283 20.7806ZM208.88 21.6185C209.458 21.9486 210.028 22.2842 210.591 22.6252L211.886 20.4865C211.305 20.1348 210.716 19.7885 210.12 19.4479L208.88 21.6185ZM213.921 24.7573C215.024 25.5035 216.097 26.2703 217.141 27.0557L218.644 25.0581C217.567 24.2478 216.46 23.4566 215.322 22.6866L213.921 24.7573ZM220.244 29.5158C221.267 30.3687 222.258 31.2393 223.219 32.1255L224.914 30.2874C223.923 29.3737 222.9 28.4758 221.846 27.5961L220.244 29.5158ZM226.061 34.8766C226.996 35.8271 227.9 36.792 228.773 37.7685L230.637 36.1025C229.738 35.0967 228.807 34.1028 227.843 33.1232L226.061 34.8766ZM231.342 40.7826C232.183 41.8175 232.992 42.8622 233.77 43.9138L235.78 42.4272C234.98 41.3456 234.148 40.2708 233.282 39.2056L231.342 40.7826ZM236.056 47.1549C236.802 48.2634 237.514 49.3763 238.195 50.4903L240.328 49.1868C239.629 48.0426 238.897 46.8991 238.131 45.7596L236.056 47.1549ZM240.192 53.9223C240.842 55.0957 241.457 56.2664 242.039 57.4307L244.275 56.3124C243.678 55.1176 243.046 53.9159 242.379 52.7112L240.192 53.9223ZM243.741 61.0179C244.295 62.25 244.811 63.4698 245.293 64.6727L247.614 63.7437C247.12 62.5093 246.589 61.2577 246.022 59.9935L243.741 61.0179ZM246.689 68.3833C247.142 69.6672 247.553 70.9241 247.926 72.1473L250.317 71.4188C249.934 70.1614 249.511 68.8704 249.047 67.5522L246.689 68.3833ZM248.994 75.964C249.338 77.3113 249.63 78.6016 249.876 79.8242L252.327 79.3326C252.073 78.0668 251.771 76.7345 251.417 75.3464L248.994 75.964ZM250.534 83.716C250.625 84.3953 250.699 85.0406 250.755 85.649L253.245 85.4174C253.185 84.7727 253.107 84.0932 253.011 83.3819L250.534 83.716Z" fill="white"/>
</svg>
