<?xml version="1.0" encoding="UTF-8"?>
<svg id="Layer_1" xmlns="http://www.w3.org/2000/svg" version="1.1" viewBox="0 0 56.7 56.7">
  <!-- Generator: Adobe Illustrator 29.0.0, SVG Export Plug-In . SVG Version: 2.1.0 Build 186)  -->
  <defs>
    <style>
      .st0 {
        fill: #bfbebe;
      }
    </style>
  </defs>
  <g id="j6gtfz">
    <g>
      <path class="st0" d="M44.5,19.2c4.5-.4,8.2.3,8.7,5.4s.3,12.1-.4,13.9-2.3,2.8-3.8,3.1-12.5.4-13.7,0-3-4.2-3.4-5.3c-3.7-9.3,1.6-24.3,11.2-28,2-.7,11.2-3.3,10,.9s-4.2,2.5-5.4,3.8-2.4,4.1-3.2,6.1Z"/>
      <path class="st0" d="M18.4,19.2c4.5-.4,8.2.3,8.7,5.4.2,2.4.3,12.1-.4,13.9s-2.3,2.8-3.8,3.1-12.5.4-13.7,0-3-4.2-3.4-5.3c-3.7-9.3,1.6-24.3,11.2-28,2-.7,11.2-3.3,10,.9s-4.2,2.5-5.4,3.8-2.4,4.1-3.2,6.1Z"/>
    </g>
  </g>
</svg>