<svg width="120" height="84" viewBox="0 0 120 84" fill="none" xmlns="http://www.w3.org/2000/svg">
<path d="M118.051 2.75151C118.74 2.80554 119.341 2.29141 119.395 1.60317C119.449 0.914929 118.935 0.313205 118.247 0.259179L118.051 2.75151ZM5.04977 82.4413C5.31031 83.0806 6.03977 83.3877 6.67908 83.1271L17.0972 78.8815C17.7365 78.6209 18.0435 77.8915 17.783 77.2522C17.5225 76.6129 16.793 76.3058 16.1537 76.5663L6.89316 80.3403L3.11923 71.0797C2.85869 70.4404 2.12922 70.1334 1.48992 70.3939C0.850612 70.6544 0.543565 71.3839 0.8041 72.0232L5.04977 82.4413ZM118.247 0.259179C117.579 0.206768 116.89 0.164938 116.181 0.134341L116.073 2.63202C116.754 2.66139 117.414 2.70148 118.051 2.75151L118.247 0.259179ZM112.037 0.084142C110.708 0.106762 109.325 0.16547 107.894 0.263646L108.066 2.75778C109.455 2.66247 110.794 2.60565 112.079 2.58378L112.037 0.084142ZM103.77 0.643895C102.442 0.796878 101.08 0.982575 99.688 1.2033L100.08 3.67245C101.437 3.45725 102.763 3.27637 104.056 3.12747L103.77 0.643895ZM95.6275 1.93202C94.3059 2.19661 92.9618 2.4923 91.5978 2.82086L92.1833 5.25134C93.5157 4.93037 94.8283 4.64164 96.1183 4.38337L95.6275 1.93202ZM87.6057 3.86276C86.3036 4.22881 84.9866 4.6248 83.6566 5.05216L84.4215 7.43229C85.7219 7.01439 87.0096 6.62726 88.2823 6.26947L87.6057 3.86276ZM79.7553 6.38457C78.4811 6.84566 77.1974 7.33582 75.9059 7.85626L76.8403 10.1751C78.1038 9.66589 79.3597 9.18639 80.606 8.73539L79.7553 6.38457ZM72.1125 9.46393C70.8729 10.0154 69.6279 10.5953 68.379 11.2046L69.4752 13.4515C70.6974 12.8552 71.9158 12.2877 73.1287 11.7481L72.1125 9.46393ZM64.7092 13.0756C63.5101 13.7136 62.3088 14.3795 61.1067 15.074L62.3574 17.2387C63.5341 16.5588 64.7099 15.9071 65.8836 15.2826L64.7092 13.0756ZM57.575 17.1972C56.4215 17.9182 55.2685 18.6664 54.1172 19.4426L55.5147 21.5155C56.642 20.7555 57.7708 20.023 58.9 19.3172L57.575 17.1972ZM50.7364 21.8075C49.6365 22.6053 48.5393 23.4296 47.4458 24.2809L48.9817 26.2535C50.0527 25.4197 51.1272 24.6124 52.2043 23.8312L50.7364 21.8075ZM44.2447 26.8612C43.2015 27.7315 42.1626 28.6274 41.1291 29.5497L42.7936 31.415C43.8063 30.5113 44.8241 29.6335 45.8461 28.781L44.2447 26.8612ZM38.1003 32.3438C37.114 33.2844 36.1334 34.25 35.1596 35.2412L36.9429 36.9933C37.8976 36.0215 38.8588 35.075 39.8255 34.1532L38.1003 32.3438ZM32.3289 38.2162C31.4095 39.2139 30.497 40.2356 29.5921 41.2817L31.483 42.9172C32.3706 41.8909 33.2657 40.8888 34.1673 39.9104L32.3289 38.2162ZM26.9457 44.4392C26.0873 45.4961 25.2367 46.5763 24.3946 47.68L26.3822 49.1964C27.2089 48.1128 28.0438 47.0526 28.8863 46.0154L26.9457 44.4392ZM21.9574 50.9749C21.1661 52.0783 20.3831 53.204 19.6092 54.3521L21.6822 55.7495C22.4426 54.6214 23.2118 53.5156 23.989 52.4318L21.9574 50.9749ZM17.3501 57.8089C16.6275 58.9496 15.9136 60.1113 15.209 61.2942L17.3568 62.5736C18.0498 61.4102 18.7517 60.2681 19.462 59.1468L17.3501 57.8089ZM13.1522 64.8557C12.4879 66.0424 11.8328 67.2493 11.1873 68.4768L13.4 69.6404C14.0354 68.4321 14.6801 67.2444 15.3337 66.0768L13.1522 64.8557ZM9.32959 72.1213C8.72679 73.3415 8.13334 74.5811 7.54964 75.8402L9.81777 76.8916C10.3928 75.6511 10.9774 74.4302 11.571 73.2285L9.32959 72.1213ZM5.87236 79.575C5.59756 80.2068 5.32517 80.8433 5.05524 81.4846L7.35944 82.4545C7.62555 81.8223 7.89406 81.1948 8.16492 80.572L5.87236 79.575Z" fill="white"/>
</svg>
