<svg width="124" height="194" viewBox="0 0 124 194" fill="none" xmlns="http://www.w3.org/2000/svg">
<path d="M31.6431 2.99264C32.3302 2.92564 32.8328 2.31433 32.7658 1.62723C32.6988 0.940128 32.0875 0.437441 31.4004 0.504438L31.6431 2.99264ZM60.8325 126.334L60.5889 125.108L60.8325 126.334ZM84.7435 58.8829L84.2265 57.7448L84.7435 58.8829ZM123.738 183.598C124.082 182.999 123.875 182.235 123.276 181.892L113.516 176.297C112.917 175.953 112.153 176.16 111.81 176.759C111.466 177.358 111.674 178.122 112.272 178.466L120.948 183.439L115.974 192.115C115.631 192.714 115.838 193.477 116.437 193.821C117.036 194.164 117.8 193.957 118.143 193.358L123.738 183.598ZM31.4004 0.504438C30.5888 0.583584 29.7918 0.904037 29.0331 1.36047L30.3219 3.50269C30.8775 3.16842 31.3157 3.02456 31.6431 2.99264L31.4004 0.504438ZM25.7577 4.20198C24.9066 5.14055 24.0327 6.24307 23.1463 7.4872L25.1824 8.93785C26.0254 7.7547 26.8382 6.73207 27.6096 5.88137L25.7577 4.20198ZM20.8924 10.9086C20.2196 12.0045 19.5414 13.1744 18.8621 14.4109L21.0532 15.6146C21.715 14.41 22.3731 13.2751 23.0229 12.2166L20.8924 10.9086ZM16.9885 17.986C16.4021 19.1567 15.8174 20.3732 15.2371 21.6311L17.5071 22.6784C18.0768 21.4437 18.6499 20.2513 19.2238 19.1056L16.9885 17.986ZM13.5904 25.3411C13.0689 26.5616 12.5533 27.8136 12.0456 29.0935L14.3695 30.0153C14.8693 28.7552 15.3766 27.5234 15.8894 26.3232L13.5904 25.3411ZM10.611 32.8444C10.1505 34.0935 9.69876 35.3645 9.25758 36.6546L11.6231 37.4635C12.0579 36.1921 12.503 34.9397 12.9567 33.7092L10.611 32.8444ZM7.99152 40.5032C7.59043 41.7721 7.20059 43.0562 6.82354 44.3529L9.22412 45.0509C9.59571 43.7729 9.97995 42.5074 10.3753 41.2567L7.99152 40.5032ZM5.74041 48.2484C5.39646 49.5448 5.06636 50.8511 4.75159 52.1651L7.18281 52.7475C7.49277 51.4536 7.81793 50.1668 8.15682 48.8895L5.74041 48.2484ZM3.85994 56.1037C3.57925 57.4207 3.31516 58.7431 3.0691 60.0685L5.52709 60.5248C5.76903 59.2216 6.02882 57.9209 6.30503 56.6248L3.85994 56.1037ZM2.38628 64.0529C2.1767 65.3892 1.98683 66.7262 1.81818 68.0619L4.29849 68.375C4.46391 67.065 4.65024 65.7527 4.85609 64.4403L2.38628 64.0529ZM1.37613 72.0763C1.24933 73.4311 1.14611 74.7822 1.06809 76.127L3.56389 76.2718C3.64014 74.9576 3.74109 73.6359 3.86525 72.3093L1.37613 72.0763ZM0.910436 80.181C0.884433 81.5397 0.886437 82.8895 0.918222 84.2278L3.41752 84.1684C3.38662 82.8675 3.38463 81.5535 3.40998 80.2289L0.910436 80.181ZM1.11201 88.3075C1.21081 89.6751 1.34397 91.0277 1.51358 92.3619L3.99363 92.0467C3.83003 90.7596 3.70122 89.4522 3.60552 88.1273L1.11201 88.3075ZM2.14684 96.3761C2.40553 97.7374 2.70696 99.0755 3.0536 100.387L5.47056 99.7477C5.13979 98.4965 4.8512 97.216 4.60289 95.9094L2.14684 96.3761ZM4.25963 104.316C4.71972 105.621 5.23179 106.893 5.79873 108.127L8.07072 107.084C7.53723 105.922 7.05347 104.721 6.61738 103.484L4.25963 104.316ZM7.70787 111.785C8.4148 112.982 9.1838 114.134 10.018 115.236L12.0113 113.727C11.2369 112.704 10.5208 111.632 9.86041 110.514L7.70787 111.785ZM12.7182 118.386C13.6762 119.374 14.7002 120.306 15.7928 121.179L17.3535 119.226C16.3442 118.42 15.3981 117.558 14.5124 116.646L12.7182 118.386ZM19.2121 123.575C20.3662 124.281 21.5816 124.929 22.8603 125.517L23.9047 123.246C22.7138 122.698 21.5851 122.096 20.5161 121.442L19.2121 123.575ZM26.6841 127.028C27.9636 127.457 29.2966 127.833 30.6845 128.153L31.246 125.717C29.9342 125.414 28.6792 125.06 27.479 124.658L26.6841 127.028ZM34.6999 128.899C36.008 129.087 37.3594 129.23 38.7549 129.327L38.9287 126.833C37.5915 126.74 36.3008 126.603 35.0554 126.424L34.6999 128.899ZM42.8798 129.478C44.1818 129.485 45.5188 129.455 46.8916 129.387L46.768 126.89C45.4389 126.956 44.1474 126.985 42.8927 126.978L42.8798 129.478ZM51.0059 129.08C52.2985 128.952 53.6204 128.793 54.9722 128.602L54.6223 126.127C53.3037 126.313 52.0165 126.468 50.7599 126.592L51.0059 129.08ZM58.9984 127.953C59.6837 127.83 60.3763 127.699 61.0761 127.56L60.5889 125.108C59.9034 125.244 59.2255 125.372 58.5551 125.493L58.9984 127.953ZM61.0761 127.56C61.7349 127.429 62.4007 127.252 63.0715 127.033L62.2955 124.656C61.7103 124.847 61.1411 124.998 60.5889 125.108L61.0761 127.56ZM66.8289 125.415C67.9575 124.82 69.0999 124.127 70.2493 123.348L68.8464 121.278C67.7626 122.013 66.6994 122.657 65.6633 123.203L66.8289 125.415ZM73.4412 120.984C74.4408 120.183 75.4438 119.325 76.446 118.416L74.7671 116.564C73.7991 117.441 72.8347 118.266 71.8782 119.032L73.4412 120.984ZM79.2957 115.698C80.2056 114.788 81.1124 113.84 82.0129 112.861L80.1724 111.169C79.2942 112.124 78.4114 113.046 77.5274 113.931L79.2957 115.698ZM84.6135 109.924C85.4542 108.939 86.2866 107.93 87.108 106.901L85.1541 105.342C84.3493 106.35 83.5345 107.337 82.7124 108.3L84.6135 109.924ZM89.5027 103.803C90.2825 102.761 91.0493 101.704 91.8007 100.636L89.7559 99.1978C89.0186 100.246 88.2662 101.283 87.5015 102.304L89.5027 103.803ZM94.0026 97.4058C94.724 96.3135 95.4273 95.2136 96.1099 94.1102L93.9838 92.795C93.3144 93.8772 92.6244 94.9562 91.9165 96.0281L94.0026 97.4058ZM98.1186 90.749C98.7784 89.6047 99.4133 88.4608 100.02 87.322L97.8142 86.146C97.2206 87.2596 96.5992 88.3792 95.9528 89.5002L98.1186 90.749ZM101.803 83.8266C102.388 82.6246 102.937 81.4331 103.448 80.2577L101.156 79.261C100.66 80.4019 100.125 81.561 99.555 82.7329L101.803 83.8266ZM104.928 76.6075C105.406 75.3319 105.831 74.0822 106.197 72.8665L103.803 72.146C103.454 73.3037 103.048 74.5011 102.587 75.7305L104.928 76.6075ZM107.178 69.0131C107.465 67.6027 107.654 66.2499 107.728 64.9725L105.232 64.827C105.166 65.9651 104.996 67.1983 104.728 68.514L107.178 69.0131ZM107.501 60.8308C107.199 59.2891 106.623 57.9003 105.699 56.7639L103.759 58.3414C104.37 59.0919 104.806 60.076 105.047 61.3103L107.501 60.8308ZM101.892 54.2695C100.658 53.8952 99.2553 53.7476 97.6887 53.8192L97.8029 56.3166C99.1502 56.255 100.26 56.3869 101.166 56.6618L101.892 54.2695ZM93.6328 54.4042C92.4352 54.6772 91.1558 55.0447 89.7918 55.5103L90.5994 57.8762C91.8928 57.4348 93.0876 57.0926 94.1883 56.8417L93.6328 54.4042ZM86.1163 56.9174C85.5015 57.1761 84.8716 57.4518 84.2265 57.7448L85.2605 60.021C85.8853 59.7372 86.4936 59.4709 87.0858 59.2218L86.1163 56.9174ZM84.2265 57.7448C83.582 58.0376 82.9479 58.3485 82.3241 58.677L83.4891 60.889C84.0702 60.5829 84.6607 60.2934 85.2605 60.021L84.2265 57.7448ZM78.7091 60.8522C77.5495 61.6415 76.4318 62.4955 75.356 63.409L76.9743 65.3146C77.9847 64.4566 79.0319 63.6567 80.1159 62.9188L78.7091 60.8522ZM72.2885 66.2886C71.3251 67.2848 70.4013 68.3326 69.5171 69.4274L71.4621 70.9982C72.3014 69.9589 73.176 68.9671 74.0856 68.0265L72.2885 66.2886ZM67.0271 72.7844C66.2498 73.9246 65.5091 75.1047 64.8049 76.3209L66.9685 77.5736C67.6431 76.4084 68.3513 75.2803 69.0927 74.1926L67.0271 72.7844ZM62.8364 80.0043C62.229 81.237 61.6552 82.4997 61.1149 83.7892L63.4208 84.7552C63.942 83.5111 64.4948 82.2948 65.0789 81.1093L62.8364 80.0043ZM59.622 87.6582C59.1632 88.9533 58.7357 90.2705 58.3397 91.6071L60.7366 92.3174C61.1206 91.0216 61.5347 89.7459 61.9785 88.4931L59.622 87.6582ZM57.2584 95.6193C56.9341 96.9511 56.6393 98.2984 56.3743 99.6587L58.8281 100.137C59.0859 98.8138 59.3724 97.5043 59.6874 96.2108L57.2584 95.6193ZM55.6737 103.738C55.4708 105.098 55.2967 106.469 55.1513 107.847L57.6375 108.11C57.7792 106.766 57.9488 105.431 58.1464 104.106L55.6737 103.738ZM54.8039 111.969C54.7169 113.341 54.658 114.719 54.6274 116.1L57.1268 116.155C57.1566 114.809 57.214 113.465 57.2989 112.127L54.8039 111.969ZM54.6201 120.237C54.6458 121.615 54.6997 122.993 54.7817 124.369L57.2773 124.22C57.1973 122.878 57.1448 121.534 57.1197 120.19L54.6201 120.237ZM55.1131 128.493C55.2523 129.868 55.42 131.237 55.6163 132.6L58.0908 132.244C57.8995 130.916 57.736 129.581 57.6004 128.241L55.1131 128.493ZM56.2941 136.679C56.5511 138.041 56.8376 139.394 57.1538 140.735L59.5871 140.161C59.2797 138.858 59.0009 137.541 58.7508 136.215L56.2941 136.679ZM58.1989 144.745C58.5801 146.078 58.9921 147.395 59.4348 148.695L61.8014 147.889C61.3722 146.629 60.9726 145.351 60.6024 144.057L58.1989 144.745ZM60.8767 152.592C61.3951 153.886 61.9461 155.159 62.53 156.408L64.7947 155.349C64.2312 154.144 63.6988 152.914 63.1974 151.663L60.8767 152.592ZM64.4019 160.118C65.0678 161.343 65.7683 162.54 66.5039 163.706L68.6181 162.371C67.9124 161.253 67.2392 160.103 66.5985 158.924L64.4019 160.118ZM68.8562 167.16C69.6851 168.289 70.5513 169.381 71.4549 170.433L73.3514 168.804C72.4904 167.802 71.6636 166.759 70.871 165.68L68.8562 167.16ZM74.3051 173.492C75.3008 174.476 76.3355 175.415 77.4093 176.305L79.0047 174.38C77.9885 173.538 77.0077 172.648 76.0623 171.714L74.3051 173.492ZM80.7609 178.834C81.9128 179.622 83.1037 180.357 84.3337 181.036L85.5418 178.847C84.3827 178.207 83.2597 177.514 82.1724 176.77L80.7609 178.834ZM88.105 182.884C89.383 183.435 90.698 183.928 92.0498 184.36L92.811 181.979C91.5368 181.571 90.298 181.107 89.0943 180.588L88.105 182.884ZM96.1022 185.446C97.4424 185.738 98.8147 185.973 100.219 186.149L100.529 183.668C99.1987 183.502 97.9006 183.279 96.6347 183.003L96.1022 185.446ZM104.4 186.489C105.771 186.543 107.171 186.542 108.597 186.485L108.497 183.987C107.135 184.041 105.802 184.042 104.498 183.991L104.4 186.489ZM112.719 186.17C114.079 186.018 115.463 185.816 116.869 185.564L116.428 183.103C115.074 183.346 113.745 183.54 112.441 183.686L112.719 186.17ZM120.913 184.713C121.597 184.548 122.286 184.371 122.981 184.183L122.327 181.77C121.655 181.952 120.988 182.123 120.327 182.282L120.913 184.713Z" fill="white"/>
</svg>
