<svg width="119" height="131" viewBox="0 0 119 131" fill="none" xmlns="http://www.w3.org/2000/svg">
<path d="M1.39143 3.43311C0.701109 3.42625 0.147052 2.86108 0.15391 2.17075C0.160769 1.48043 0.725945 0.926375 1.41627 0.933233L1.39143 3.43311ZM110.575 129.872C110.1 130.373 109.309 130.395 108.808 129.92L100.639 122.184C100.138 121.71 100.117 120.919 100.591 120.417C101.066 119.916 101.857 119.895 102.359 120.369L109.619 127.246L116.495 119.985C116.97 119.484 117.761 119.462 118.263 119.937C118.764 120.412 118.785 121.203 118.311 121.704L110.575 129.872ZM1.41627 0.933233C2.078 0.939807 2.7519 0.955368 3.43727 0.980217L3.34669 3.47857C2.68283 3.45451 2.03086 3.43946 1.39143 3.43311L1.41627 0.933233ZM7.52273 1.22953C8.84442 1.34181 10.2001 1.48675 11.5859 1.66621L11.2648 4.1455C9.91495 3.97069 8.59572 3.82969 7.3111 3.72056L7.52273 1.22953ZM15.6204 2.274C16.9335 2.49922 18.2685 2.75469 19.6225 3.04185L19.1038 5.48745C17.7817 5.20705 16.4787 4.95772 15.1978 4.73801L15.6204 2.274ZM23.589 3.96217C24.8851 4.28872 26.1953 4.64416 27.517 5.02968L26.8169 7.42967C25.525 7.05284 24.2446 6.70548 22.9782 6.38641L23.589 3.96217ZM31.4031 6.24068C32.6757 6.66285 33.9566 7.11313 35.2437 7.59253L34.3711 9.93529C33.1126 9.46653 31.8602 9.02628 30.6159 8.61353L31.4031 6.24068ZM39.0348 9.08328C40.2773 9.59805 41.5237 10.1405 42.772 10.7115L41.732 12.9849C40.5116 12.4266 39.2929 11.8963 38.0779 11.3929L39.0348 9.08328ZM46.4508 12.4759C47.6504 13.0784 48.8502 13.7081 50.0483 14.3656L48.8455 16.5572C47.6743 15.9145 46.5016 15.299 45.3288 14.71L46.4508 12.4759ZM53.5777 16.3878C54.7336 17.0785 55.8863 17.7962 57.0346 18.5415L55.6735 20.6385C54.5514 19.9102 53.4249 19.2088 52.2952 18.5337L53.5777 16.3878ZM60.4141 20.8256C61.5164 21.601 62.613 22.403 63.7026 23.2322L62.1885 25.2216C61.1241 24.4115 60.0527 23.628 58.9757 22.8704L60.4141 20.8256ZM66.8906 25.7543C67.9311 26.6098 68.9638 27.4914 69.9873 28.3997L68.3279 30.2696C67.3281 29.3823 66.3194 28.5211 65.3029 27.6855L66.8906 25.7543ZM72.9891 31.1669C73.9608 32.0973 74.9228 33.0533 75.874 34.0353L74.0782 35.7746C73.149 34.8153 72.2093 33.8815 71.2601 32.9726L72.9891 31.1669ZM78.6477 37.0088C79.5491 38.0121 80.4391 39.0404 81.3169 40.0943L79.3959 41.6943C78.5382 40.6645 77.6686 39.6597 76.788 38.6795L78.6477 37.0088ZM83.8657 43.2725C84.6859 44.3348 85.4936 45.4211 86.2882 46.5319L84.2548 47.9864C83.478 46.9004 82.6884 45.8385 81.8868 44.8003L83.8657 43.2725ZM88.6015 49.8932C89.3433 51.0138 90.0718 52.1576 90.7863 53.3251L88.654 54.6301C87.9549 53.4879 87.2423 52.3691 86.5168 51.2731L88.6015 49.8932ZM92.8451 56.8247C93.5096 58.0002 94.1601 59.1983 94.7959 60.4191L92.5785 61.5738C91.9559 60.3783 91.3191 59.2054 90.6687 58.0548L92.8451 56.8247ZM96.6051 64.0388C97.186 65.2508 97.7528 66.4839 98.3047 67.7385L96.0164 68.7452C95.4753 67.5153 94.9199 66.3069 94.3507 65.1195L96.6051 64.0388ZM99.8838 71.4882C100.383 72.7289 100.869 73.9895 101.34 75.2702L98.9933 76.1328C98.5312 74.8758 98.0549 73.639 97.5648 72.4221L99.8838 71.4882ZM102.692 79.1269C103.114 80.3897 103.521 81.6712 103.915 82.9716L101.522 83.6954C101.135 82.4177 100.735 81.1589 100.321 79.9188L102.692 79.1269ZM105.045 86.9078C105.394 88.1888 105.728 89.4874 106.049 90.8037L103.62 91.3955C103.305 90.1006 102.975 88.8236 102.633 87.5642L105.045 86.9078ZM106.965 94.7903C107.246 96.088 107.513 97.4022 107.766 98.7331L105.31 99.2004C105.06 97.8896 104.798 96.5957 104.521 95.3184L106.965 94.7903ZM108.481 102.762C108.697 104.07 108.9 105.393 109.09 106.732L106.614 107.083C106.428 105.763 106.227 104.458 106.015 103.169L108.481 102.762ZM109.618 110.797C109.774 112.11 109.917 113.438 110.047 114.78L107.559 115.022C107.43 113.697 107.289 112.387 107.135 111.091L109.618 110.797ZM110.399 118.849C110.499 120.173 110.587 121.51 110.663 122.862L108.167 123.002C108.092 121.667 108.005 120.345 107.906 119.038L110.399 118.849ZM110.851 126.919C110.876 127.602 110.898 128.289 110.917 128.979L108.418 129.047C108.399 128.365 108.377 127.686 108.353 127.011L110.851 126.919Z" fill="white"/>
</svg>
