<svg width="114" height="213" viewBox="0 0 114 213" fill="none" xmlns="http://www.w3.org/2000/svg">
<path d="M71.0527 3.4996C71.6966 3.74843 72.4204 3.42812 72.6692 2.78416C72.918 2.1402 72.5977 1.41646 71.9537 1.16764L71.0527 3.4996ZM41.7191 126.807L42.0522 125.602L41.7191 126.807ZM93.3838 77.2878L93.4333 76.0388L93.3838 77.2878ZM72.1931 206.228C72.7689 205.847 72.927 205.071 72.5462 204.495L66.3405 195.112C65.9597 194.536 65.1842 194.378 64.6084 194.759C64.0326 195.14 63.8745 195.915 64.2553 196.491L69.7715 204.832L61.4305 210.348C60.8546 210.729 60.6966 211.504 61.0774 212.08C61.4582 212.656 62.2337 212.814 62.8095 212.433L72.1931 206.228ZM71.9537 1.16764C71.1931 0.873727 70.3371 0.801968 69.4542 0.868892L69.6432 3.36174C70.2897 3.31273 70.7458 3.38105 71.0527 3.4996L71.9537 1.16764ZM65.2514 1.93603C64.0693 2.39217 62.7933 2.98459 61.4424 3.69788L62.6098 5.90861C63.8944 5.23028 65.08 4.68183 66.1514 4.26838L65.2514 1.93603ZM57.8917 5.74197C56.7983 6.4188 55.6668 7.15928 54.5044 7.95887L55.9212 10.0186C57.0536 9.23969 58.1513 8.52145 59.2075 7.86768L57.8917 5.74197ZM51.2244 10.3111C50.1746 11.0936 49.1057 11.9177 48.0221 12.7808L49.5797 14.7363C50.6432 13.8891 51.691 13.0813 52.7184 12.3156L51.2244 10.3111ZM44.8842 15.3555C43.87 16.2117 42.8469 17.0986 41.8183 18.014L43.4804 19.8815C44.493 18.9803 45.4996 18.1077 46.4969 17.2658L44.8842 15.3555ZM38.8515 20.7206C37.8789 21.6296 36.9044 22.5621 35.9306 23.5166L37.6805 25.302C38.6402 24.3614 39.6005 23.4425 40.5586 22.547L38.8515 20.7206ZM33.0705 26.3862C32.1421 27.3396 31.2169 28.3116 30.2975 29.3007L32.1286 31.0028C33.0347 30.028 33.9466 29.07 34.8616 28.1302L33.0705 26.3862ZM27.5798 32.2944C26.6901 33.2981 25.8083 34.3169 24.9368 35.3494L26.8472 36.9619C27.7054 35.9452 28.574 34.9416 29.4506 33.9528L27.5798 32.2944ZM22.3707 38.4676C21.5283 39.5181 20.6983 40.5808 19.883 41.6544L21.874 43.1663C22.6756 42.1108 23.492 41.0654 24.3211 40.0316L22.3707 38.4676ZM17.4829 44.9074C16.6954 46.007 15.9251 47.1163 15.1744 48.2338L17.2496 49.6278C17.9859 48.5318 18.7419 47.443 19.5154 46.3631L17.4829 44.9074ZM12.9759 51.6217C12.254 52.7751 11.5548 53.9358 10.8809 55.1022L13.0457 56.3528C13.7042 55.2129 14.3881 54.0775 15.095 52.9481L12.9759 51.6217ZM8.91879 58.6533C8.28517 59.8554 7.68055 61.0623 7.10773 62.2721L9.36728 63.3419C9.92412 62.1658 10.5127 60.991 11.1304 59.819L8.91879 58.6533ZM5.44805 66.004C4.92188 67.2703 4.43323 68.5384 3.98532 69.8067L6.34263 70.6392C6.7747 69.4158 7.24698 68.1899 7.75667 66.9633L5.44805 66.004ZM2.74768 73.6775C2.36725 75.0099 2.0354 76.3407 1.75602 77.6679L4.2024 78.1829C4.46899 76.9165 4.78644 75.6428 5.15161 74.3639L2.74768 73.6775ZM1.06843 81.7198C0.893222 83.0923 0.779221 84.4589 0.730959 85.8168L3.22938 85.9056C3.2748 84.6278 3.38224 83.3373 3.54831 82.0363L1.06843 81.7198ZM0.793276 89.9424C0.887165 91.3293 1.05669 92.7039 1.30686 94.0632L3.76556 93.6107C3.53333 92.3489 3.37528 91.0691 3.28756 89.7736L0.793276 89.9424ZM2.30394 98.0908C2.71625 99.4033 3.21215 100.696 3.79606 101.967L6.06777 100.924C5.52838 99.7496 5.07019 98.5549 4.68902 97.3416L2.30394 98.0908ZM5.77466 105.644C6.48874 106.793 7.28331 107.918 8.16157 109.018L10.1151 107.458C9.2971 106.433 8.55938 105.388 7.89794 104.324L5.77466 105.644ZM10.8989 112.086C11.8492 113.044 12.8713 113.978 13.9676 114.888L15.5637 112.963C14.5275 112.104 13.5653 111.224 12.6738 110.325L10.8989 112.086ZM17.2198 117.358C18.3041 118.113 19.447 118.849 20.65 119.563L21.9257 117.412C20.7729 116.728 19.6814 116.026 18.6491 115.307L17.2198 117.358ZM24.2673 121.551C25.4275 122.142 26.6355 122.715 27.8924 123.271L28.9038 120.985C27.6868 120.447 26.52 119.892 25.402 119.323L24.2673 121.551ZM31.7062 124.845C32.9184 125.312 34.1709 125.764 35.4644 126.2L36.2639 123.832C35.0022 123.406 33.7826 122.966 32.6041 122.512L31.7062 124.845ZM39.3528 127.43C40.0205 127.627 40.6982 127.821 41.3859 128.011L42.0522 125.602C41.3787 125.415 40.7153 125.226 40.0622 125.032L39.3528 127.43ZM41.3859 128.011C42.0333 128.19 42.7077 128.331 43.4055 128.437L43.7798 125.965C43.1711 125.873 42.5949 125.752 42.0522 125.602L41.3859 128.011ZM47.489 128.68C48.7645 128.655 50.0967 128.549 51.4737 128.369L51.15 125.89C49.8516 126.06 48.6122 126.158 47.4413 126.18L47.489 128.68ZM55.3873 127.691C56.6401 127.425 57.9217 127.109 59.2252 126.747L58.5574 124.338C57.2984 124.687 56.0663 124.991 54.8676 125.246L55.3873 127.691ZM62.9922 125.599C64.2143 125.195 65.4501 124.755 66.6946 124.285L65.8105 121.946C64.5966 122.405 63.3936 122.833 62.2064 123.226L62.9922 125.599ZM70.3375 122.829C71.5308 122.328 72.7277 121.8 73.924 121.25L72.879 118.979C71.707 119.518 70.5353 120.034 69.3684 120.525L70.3375 122.829ZM77.4553 119.557C78.6199 118.977 79.7798 118.378 80.9311 117.761L79.7503 115.557C78.6206 116.162 77.4826 116.751 76.3405 117.32L77.4553 119.557ZM84.3494 115.864C85.4846 115.212 86.6071 114.546 87.7126 113.866L86.404 111.736C85.3198 112.402 84.2186 113.056 83.1046 113.696L84.3494 115.864ZM91.0172 111.766C92.1208 111.04 93.2019 110.303 94.2559 109.559L92.8133 107.517C91.7826 108.245 90.7244 108.966 89.6433 109.677L91.0172 111.766ZM97.4189 107.237C98.4813 106.426 99.5076 105.608 100.492 104.787L98.8916 102.867C97.936 103.663 96.9376 104.459 95.9018 105.25L97.4189 107.237ZM103.454 102.191C104.454 101.266 105.395 100.34 106.268 99.4187L104.453 97.6995C103.622 98.5773 102.72 99.4643 101.757 100.356L103.454 102.191ZM108.876 96.4169C109.766 95.286 110.542 94.1619 111.183 93.0542L109.018 91.8029C108.448 92.7899 107.742 93.8155 106.912 94.8706L108.876 96.4169ZM112.84 89.2517C113.263 87.7391 113.373 86.2395 113.057 84.8089L110.616 85.347C110.824 86.2917 110.772 87.3668 110.433 88.5778L112.84 89.2517ZM110.777 80.8701C109.843 79.9815 108.656 79.2193 107.224 78.5796L106.204 80.862C107.435 81.4123 108.368 82.0288 109.053 82.6812L110.777 80.8701ZM103.338 77.2801C102.145 76.9859 100.837 76.7395 99.4092 76.5426L99.0678 79.0192C100.422 79.2058 101.643 79.4369 102.739 79.7073L103.338 77.2801ZM95.4933 76.1485C94.8278 76.1034 94.1412 76.0668 93.4333 76.0388L93.3344 78.5368C94.0201 78.5639 94.6833 78.5994 95.3242 78.6428L95.4933 76.1485ZM93.4333 76.0388C92.726 76.0108 92.0197 76.0037 91.3148 76.0169L91.3619 78.5165C92.0186 78.5041 92.6762 78.5107 93.3344 78.5368L93.4333 76.0388ZM87.1079 76.3362C85.7174 76.5204 84.3352 76.7812 82.9637 77.1141L83.5533 79.5435C84.8415 79.2309 86.1365 78.9867 87.4364 78.8145L87.1079 76.3362ZM78.9294 78.3086C77.6212 78.7658 76.3252 79.2869 75.0434 79.8678L76.0753 82.1449C77.2921 81.5935 78.519 81.1003 79.7543 80.6686L78.9294 78.3086ZM71.3106 81.7483C70.1039 82.4177 68.912 83.1393 67.7365 83.9095L69.1067 86.0006C70.2329 85.2627 71.3724 84.573 72.5234 83.9344L71.3106 81.7483ZM64.3231 86.3159C63.2266 87.1443 62.1467 88.0146 61.0848 88.9239L62.7108 90.8229C63.7354 89.9456 64.7757 89.1072 65.8301 88.3106L64.3231 86.3159ZM58.0128 91.7098C57.0211 92.6607 56.0474 93.6455 55.0931 94.6617L56.9155 96.3731C57.8406 95.388 58.7836 94.4342 59.743 93.5144L58.0128 91.7098ZM52.3246 97.7604C51.4365 98.8045 50.5679 99.8759 49.72 100.972L51.6974 102.502C52.5221 101.435 53.3664 100.394 54.2289 99.3801L52.3246 97.7604ZM47.2617 104.301C46.4691 105.426 45.6977 106.572 44.9486 107.738L47.052 109.09C47.7819 107.953 48.5334 106.837 49.3051 105.742L47.2617 104.301ZM42.7867 111.264C42.0922 112.452 41.4207 113.656 40.7732 114.876L42.9812 116.048C43.6127 114.859 44.2676 113.684 44.9447 112.526L42.7867 111.264ZM38.908 118.569C38.3119 119.811 37.7409 121.067 37.196 122.333L39.4924 123.321C40.0238 122.086 40.5807 120.862 41.162 119.65L38.908 118.569ZM35.6392 126.166C35.1461 127.457 34.6805 128.756 34.2437 130.062L36.6146 130.855C37.0401 129.583 37.4938 128.317 37.9745 127.059L35.6392 126.166ZM33.0169 134.01C32.6345 135.343 32.2827 136.68 31.9627 138.02L34.3944 138.6C34.7054 137.298 35.0477 135.997 35.4199 134.7L33.0169 134.01ZM31.0948 142.072C30.8368 143.434 30.6128 144.796 30.4244 146.157L32.9007 146.5C33.0834 145.181 33.3006 143.86 33.5511 142.538L31.0948 142.072ZM29.9618 150.286C29.8436 151.675 29.7641 153.06 29.7247 154.437L32.2237 154.509C32.2617 153.179 32.3384 151.841 32.4528 150.498L29.9618 150.286ZM29.7303 158.593C29.7748 159.987 29.863 161.371 29.9965 162.742L32.4847 162.5C32.3566 161.184 32.2718 159.854 32.229 158.513L29.7303 158.593ZM30.546 166.886C30.7796 168.266 31.0628 169.631 31.3975 170.977L33.8236 170.374C33.5048 169.091 33.2344 167.789 33.011 166.469L30.546 166.886ZM32.5695 174.991C33.017 176.317 33.5196 177.621 34.079 178.898L36.3691 177.895C35.8396 176.686 35.3632 175.451 34.9382 174.191L32.5695 174.991ZM35.9373 182.663C36.6125 183.885 37.3461 185.077 38.14 186.236L40.2026 184.823C39.4545 183.731 38.7626 182.607 38.1254 181.454L35.9373 182.663ZM40.679 189.581C41.5734 190.647 42.5266 191.679 43.5402 192.672L45.2901 190.886C44.3347 189.95 43.4366 188.978 42.5943 187.974L40.679 189.581ZM46.6729 195.462C47.739 196.326 48.8594 197.152 50.0352 197.94L51.4267 195.863C50.3127 195.117 49.253 194.335 48.246 193.519L46.6729 195.462ZM53.6175 200.122C54.8186 200.786 56.0689 201.414 57.3691 202.004L58.4021 199.728C57.1606 199.164 55.9693 198.566 54.8271 197.934L53.6175 200.122ZM61.1932 203.575C62.4767 204.05 63.803 204.491 65.173 204.898L65.8841 202.501C64.5655 202.11 63.2915 201.686 62.061 201.23L61.1932 203.575ZM69.168 205.954C69.8534 206.114 70.5487 206.266 71.2539 206.41L71.7533 203.96C71.0708 203.821 70.3986 203.674 69.7364 203.519L69.168 205.954Z" fill="white"/>
</svg>
