<svg width="771" height="282" viewBox="0 0 771 282" fill="none" xmlns="http://www.w3.org/2000/svg">
<g opacity="0.5">
<path opacity="0.5" d="M17.8652 -287.183L159.792 -248.465C236.495 -227.541 296.505 -167.762 317.724 -91.1406L327.514 -55.7899C347.769 17.3453 412.849 69.0937 488.667 72.3499L534.597 74.3225C581.937 76.3556 622.738 108.279 636.101 153.739V153.739C652.008 207.856 706.048 241.372 761.597 231.572L880.89 210.527" stroke="#2992CB" stroke-width="35" stroke-linecap="round"/>
<path opacity="0.5" d="M59.8652 -335.183L201.792 -296.465C278.495 -275.541 338.505 -215.762 359.724 -139.141L369.514 -103.79C389.769 -30.6547 454.849 21.0937 530.667 24.3499L576.597 26.3225C623.937 28.3556 664.738 60.2788 678.101 105.739V105.739C694.008 159.856 748.048 193.372 803.597 183.572L922.89 162.527" stroke="#2992CB" stroke-width="35" stroke-linecap="round"/>
</g>
</svg>
