<svg width="302" height="921" viewBox="0 0 302 921" fill="none" xmlns="http://www.w3.org/2000/svg">
<g opacity="0.5">
<path opacity="0.5" d="M228.386 -117.779L218.578 29.0073C213.277 108.336 166.583 179.007 95.6905 214.997L62.9827 231.602C-4.68453 265.955 -42.5016 340.004 -30.6604 414.962L-23.487 460.372C-16.0936 507.174 -39.293 553.496 -81.2008 575.606V575.606C-131.09 601.928 -153.226 661.54 -132.607 714.043L-88.3263 826.796" stroke="#2992CB" stroke-width="35" stroke-linecap="round"/>
<path opacity="0.5" d="M283.761 -86.1299L273.953 60.6562C268.652 139.985 221.958 210.656 151.066 246.646L118.358 263.251C50.6905 297.604 12.8734 371.653 24.7146 446.611L31.888 492.021C39.2814 538.823 16.082 585.144 -25.8258 607.255V607.255C-75.7149 633.577 -97.8508 693.189 -77.2315 745.692L-32.9513 858.444" stroke="#2992CB" stroke-width="35" stroke-linecap="round"/>
</g>
</svg>
